<svg xmlns="http://www.w3.org/2000/svg" width="47" height="35" fill="none" viewBox="0 0 47 35">
  <path fill="#fff" d="M43.105 12.123c1.105 4.118 1.75 8.073 2.438 12.255.29 1.763.867 3.66.711 5.455-.08.923-.452 1.826-.947 2.617-.502.803-1.131 1.23-2.083 1.457-1.367.327-3.191.278-4.425-.423-2.173-1.235-3.725-5.434-4.596-7.58-.21-.517-.381-1.517-.798-1.87.845-.264 2.313-2.686 2.884-3.432l6.816-8.479Zm-40.063.134 6.977 8.57c.738.923 1.822 2.73 2.955 3.119-.741.465-1.416 3.193-1.775 4.101-.654 1.657-2.222 4.404-3.82 5.34-1.283.75-2.853.867-4.302.54-1.18-.267-1.777-.723-2.417-1.71-2.092-3.233 1.367-15.92 2.382-19.96Z"/>
  <path fill="#fff" d="M3.044 12.255c.217-2.074.542-5.248 1.881-6.95 1.102-1.4 2.478-1.878 3.913-2.846C9.52 2 10.013 1.326 10.692.863c1.603-1.095 3.885-1.026 5.553-.075.458.26 1.384 1.076 1.831 1.18.527.121 1.552-.019 2.125-.013l4.62.055c.525.006 1.406.13 1.88.024 1.405-.318 2.49-1.782 4.067-1.992 1.1-.147 2.651.087 3.521.794.55.448.974 1.07 1.615 1.413 1.423.76 2.784 1.114 4.122 2.08 2.38 1.719 2.704 5.178 3.079 7.794l-6.816 8.48c-.57.745-2.04 3.167-2.884 3.43-1.69.267-3.474.171-5.185.179l-8.337.02c-1.933 0-5.142.387-6.907-.287-1.133-.389-2.217-2.196-2.955-3.119l-6.977-8.57Z"/>
  <path fill="#152A36" d="m32.713 5.917.818-.109c.76.43.905.567 1.324 1.305-.186.653-.325.837-.82 1.324-.35.195-.863.177-1.262.206-.646-.57-.744-.725-.982-1.53.202-.71.287-.773.922-1.196Zm-.243 5.981 1.06-.117c.644.283.804.398 1.205.954.002.762-.053.918-.495 1.555-.355.327-.75.323-1.215.35-.65-.376-.793-.56-1.17-1.187.034-.838.02-.937.614-1.555Zm-3.317-2.871c.396-.193 1.037-.251 1.474-.161.557.114.746.468 1.028.878-.06.842-.19.998-.73 1.675-.831.256-.889.21-1.687-.132-.224-.24-.46-.503-.524-.825-.143-.717.025-.861.44-1.435Zm6.916-.239c.344-.02.777.089 1.124.136.552.542.607.674.731 1.419-.303.798-.365.885-1.11 1.353-.443.078-.859-.119-1.263-.268-.378-.53-.527-.928-.603-1.564.333-.663.434-.74 1.12-1.076Zm-8.921 5.502c.41-.056.973.09 1.347.25.523.225 1.2.84 1.403 1.36.197.504.13 1.244-.104 1.725-.335.69-.833 1.059-1.566 1.32-.45.108-1.065.122-1.516.01-.777-.193-1.186-.831-1.564-1.447-.101-.623-.236-1.292.089-1.875.433-.777 1.055-1.091 1.91-1.343ZM9.874 6.395c.473-.117.867-.165 1.343-.036.762.205 1.367.639 1.746 1.282.282.478.36 1.066.192 1.596-.281.884-.923 1.279-1.736 1.704l-1.118.117c-.771-.268-1.511-.624-1.92-1.338-.321-.563-.35-1.253-.153-1.859.25-.767.943-1.11 1.646-1.466Zm5.63 7.177.485-.059.129.065c.902.459.55 1.44 1.194 1.908.49.355 1.18.146 1.743.717.128.545.193.666-.057 1.197l-1.81.54-.684 1.613-.78.137c-.877-.446-.672-1.46-1.248-1.812-.486-.296-1.12-.213-1.646-.621-.105-.082-.123-.655-.14-.814.507-.79 1.516-.524 1.9-1.113.401-.614.26-1.182.914-1.758Z"/>
</svg>
