<svg xmlns="http://www.w3.org/2000/svg" width="40" height="41" fill="none" viewBox="0 0 40 41">
  <path fill="#11212A" d="M19.808 40.053H0v-40h40v40H19.808Zm.384-40 .157.085c.252.116.496.278.738.417l1.344.767 13.53 7.734 1.293.742a.793.793 0 0 1 .338.382.978.978 0 0 1 .06.293l.004.934-.002 17.904a.99.99 0 0 1-.081.412.94.94 0 0 1-.342.354L21.256 39.44c-.359.21-.709.428-1.082.612H40v-40H20.192Zm-.384 40-3.268-1.901L4.326 30.99l-1.592-.935a.996.996 0 0 1-.28-.264c-.086-.134-.102-.288-.106-.442l-.002-18.38c0-.223-.017-.461.027-.679a.77.77 0 0 1 .266-.428c.149-.114.33-.202.493-.292L18.403.84l.986-.566c.133-.076.273-.138.4-.221H0v40h19.808Z"/>
  <path fill="#fff" d="M33.311 30.49a.217.217 0 0 1 .099 0c-.081.08-.208.138-.307.195l-12.237 7.173-.036.025-.039-.008-.01-6.236 12.53-1.148Zm-26.764-.01 12.67 1.163-.003 6.265L6.547 30.48Zm29.482-18.62c.02-.004.037-.003.057-.003l-.005 14.312-1.91-3.74-3.793-7.344-.01-.015 5.66-3.21Zm-32.118-.036 5.722 3.25c-.166.244-.293.552-.43.816l-3.352 6.5-1.929 3.767-.01-14.333Zm13.521-8.617c.017.006.007.001.026.02L10.42 13.72l-5.714-3.246 12.726-7.268Zm5.061-.052 12.8 7.321-2.082 1.185-3.63 2.062-7.088-10.568ZM10.704 16.39c.748 1.296 7.843 13.524 7.852 13.62L4.367 28.704c-.005-.062 1.066-2.083 1.199-2.342l5.138-9.97Zm18.585 0 6.357 12.314-14.204 1.305c.024-.08.087-.166.129-.239l.255-.444 1.26-2.178 5.506-9.539c.227-.394.488-.79.687-1.198l.01-.02Zm-12.017-1.637c-.046-.26-.106-.467-.335-.628a.771.771 0 0 0-.38-.139c-.178-.018-.367-.007-.545-.007h-3.88L20 2.24l7.87 11.74h-3.954c-.183 0-.375-.012-.557.018a.77.77 0 0 0-.39.206.832.832 0 0 0-.235.573l-.025-.006c-.124.044-.352.014-.486.014h-.873c-.187-.001-.376.008-.56-.031-.04.25-.101.464-.315.622a.785.785 0 0 1-.582.159.805.805 0 0 1-.533-.333.889.889 0 0 1-.142-.426l-.024-.005c-.123.043-.35.014-.483.015h-.853c-.195-.002-.392.007-.585-.032Z"/>
  <path fill="#11212A" d="M19.217 14.775c.02-.155.036-.288.121-.425a.785.785 0 0 1 .493-.352.792.792 0 0 1 .616.122c.232.163.294.369.341.633-.039.25-.1.463-.313.622a.785.785 0 0 1-.582.158.805.805 0 0 1-.533-.333.889.889 0 0 1-.143-.425Z"/>
  <path fill="#fff" d="M17.272 14.753c.193.04.39.03.585.031h.853c.133 0 .36.03.483-.014l.024.005c.02.156.05.295.142.426.125.177.318.3.533.333a.785.785 0 0 0 .582-.159c.214-.158.275-.371.314-.622.185.04.374.03.561.031h.873c.134 0 .362.03.486-.014l.025.006a.958.958 0 0 0 .094.352c.098.178.265.32.462.374l.027.007c.195.053.412.034.614.035h.903l3.144-.002L20 29.37l-7.977-13.828 4 .002c.172 0 .355.013.525-.006a.824.824 0 0 0 .394-.15c.224-.163.29-.373.33-.635Z"/>
</svg>
