<svg xmlns="http://www.w3.org/2000/svg" width="34" height="46" fill="none" viewBox="0 0 34 46">
  <path fill="#152A36" d="M21.452.132a.793.793 0 0 1 .265-.076c.907-.065 1.535.94 1.868 1.657 1.245 2.679 2.165 6.076 2.832 8.973.145.632.127 1.278.288 1.914.471 1.863.94 4.008 1.863 5.702.35.642.922 1.039 1.455 1.517 1.712 1.538 3.844 5.143 3.965 7.477l-.45.367-1.403-.211-.401.319c-.212.568-.55 1.32-.566 1.924-.015.557.252 1.254.38 1.807.283 1.23.539 2.58.357 3.84-.16 1.107-.72 1.883-1.345 2.771-.162.231-.592.685-.67.934-.168.54-.029 1.668-.04 2.272-1.032.831-2.82 2.726-4.13 2.633-1.01-.586-1.446-2.295-1.786-3.352-1.09.253-2.485.418-3.346 1.176-.07.061-.068 1.15-.08 1.361-.786.948-1.355 1.283-2.333 1.978-.436.31-.59.599-1.176.684-1.992-.48-1.488-1.63-2.513-2.936-.227-.288-.414-.31-.753-.43-.9-.286-1.99-.507-2.793-.997-1.85-1.132-2.055-4.353-3.086-6.125-.885.442-1.737.89-2.71 1.107-.907-.218-.888-.82-1.486-1.427-.278-.282-.683-.448-.993-.769-.53-2.13.517-5.295 1.774-7.089.249-.354 1.226-1.359 1.304-1.7.008-.037-.057-.23-.069-.279-.619-2.523-1.562-5.243-1.944-7.794-.205-1.37.192-3.27-.16-4.511-.154-.544-.878-1.414-1.192-1.927C1.62 9.683.835 7.337 1.014 5.866l.448-.197c1.517.598 2.438 1.579 3.674 2.6.77.637 1.535 1.031 2.543.932 3.329-.326 6.261-1.76 9.438-2.63.608-.167 2.802-.452 3.144-.759.63-.565.178-4.447 1.19-5.68Z"/>
  <path fill="#fff" d="M16.596 45.138c-.801-1.203-.801-1.203-1.202-2.405-.1-.297.661-.28.801 0 .402.802.803 1.203.802 2.405 0 .157-.314.13-.4 0Zm1.607-.496c-.797-1.06-.797-1.06-1.196-2.12-.099-.261.658-.246.797 0 .4.708.798 1.06.798 2.12 0 .139-.313.115-.4 0Zm1.201-1.107c-.477-.13-.201-.496-.4-1.203-.05-.175.33-.165.4 0 .2.471.401.496.401 1.203 0 .092-.25.041-.4 0Zm6.825-.675c-.802-1.203-.802-1.203-1.203-2.406-.099-.297.662-.28.802 0 .401.802.802 1.203.802 2.406 0 .157-.314.13-.401 0Zm1.606-.496c-.797-1.06-.797-1.06-1.196-2.12-.098-.262.659-.247.798 0 .399.707.798 1.06.797 2.12 0 .138-.312.114-.399 0Zm1.2-1.108c-.478-.13-.201-.496-.4-1.203-.05-.174.33-.164.4 0 .2.471.401.497.401 1.203 0 .092-.25.041-.401 0ZM28.25 19.51c2.648 1.467 4.002 4.773 5.006 7.456-.693-.51-1.406-1.127-2.224-1.413l-.317.22.298 1.724-.282.37c-1.249-.822-1.4-4.06-1.94-5.483h-.508c-.1.523.093 1.145.186 1.663.363 2.008 1.109 3.83 1.825 5.73-.436.345-1.942.481-2.518.566-.343-1.553-.615-1.888-1.829-2.853l2.303-7.98Zm-22.607 7.2 3.79 3.18c.569.456 1.51.936 1.934 1.51l.144.206c-.201.347-.502.818-.536 1.22-.03.353.145.89-.007 1.2-.161.328-1.579.71-1.99.862-1.222-.884-.955-2.758-1.44-4.084l-.363-.15c-.386.54-.206 1.255-.174 1.912.206.767.388 1.082.131 1.847-.565.435-1.254 1.1-1.959 1.241l-.249-.339c-.118-1.189.942-2.855 1.27-4.07-1.126.662-1.595 1.859-2.628 2.552-.167-.11-.28-.142-.336-.342-.449-1.583 1.655-5.368 2.413-6.745Zm24.522 3.894.347.162c.291 1.653.895 3.526.345 5.182-.397 1.193-.917 1.534-1.997 2.069-1.69.837-3.654 1.288-5.467 1.78-3.24.878-8.016 2.402-11.324 1.27-1.209-.413-1.67-1.62-2.19-2.678l-.953-2.736c.442-.108 2.023-.665 2.368-.58.667.164 1.155.988 1.996 1.085 1.153.133 2.196-.272 3.09-.977.815-.642.8-1.17.92-2.145.108-.139.244-.29.4-.374.236-.125 3.564-1.043 3.687-.971.137.08.393.511.513.652.42.495.956.9 1.594 1.061.873.222 2.733-.205 3.352-.87.306-.33.533-.916.835-1.189.348-.314 1.897-.391 2.484-.74ZM21.76.933l.495.2c2.417 4.001 3.21 9.456 4.277 13.981.282 1.196.994 3.122.86 4.335-.099.9-1.912 7.471-2.589 7.806-.177.087-.712.067-.938.11a4.394 4.394 0 0 0-1.864.878c-.811.65-.771 1.58-.88 2.537l-2.891.864c-.187.053-.681.26-.848.237-.206-.029-1.116-1.296-1.601-1.467-.991-.349-2.337-.065-3.242.37-1.669-.687-3.068-1.946-4.428-3.095-.376-.364-1.25-1.002-1.477-1.428-.343-.643-.398-2.123-.57-2.898-.488-2.193-1.448-4.531-1.62-6.76-.099-1.262.241-3.176-.065-4.34-.172-.652-1.168-1.666-1.528-2.328-.612-1.122-.94-2.572-1.382-3.784l3.227 2.93c2.949 2.408 8.667-.655 11.847-1.627 1.478-.451 2.979-.691 4.512-.844.331-1.86.277-3.857.706-5.677Z"/>
  <path fill="#152A36" d="M16.169 24.389c1.189-.216 2.433-.501 3.706-.123-.428 1.299-.595 2.044-1.273 3.23l-.46.742H17.5c-.426-.456-.828-.914-1.167-1.44-.394-.612-.991-1.455-.838-2.163l.674-.246Zm3.137-12.087c.638.077 1.425.14 2.003.433.944.479 2.011 1.503 2.346 2.526.432 1.32.495 3.127-.143 4.37-.43.837-.93 1.146-1.802 1.424-.792.083-1.443-.118-2.116-.523-1.141-.686-2.406-2.274-2.727-3.592-.234-.96-.208-2.59.315-3.443.495-.809 1.252-.986 2.124-1.195Z"/>
  <path fill="#fff" d="M18.542 13.363c.341-.139.83-.208 1.2-.174.603.056 1.268.192 1.673.675l-.057.301-2.058 1.156c-.457.187-.958.585-1.385.849l-.288-.2-.03-1.088c.038-.734.444-1.063.945-1.519Zm3.13 1.805.74-.086c.621.594.73 1.463.77 2.314.037.768-.08 1.637-.617 2.223-.427.465-.809.614-1.434.64-.893.035-1.777-1.002-2.4-1.575 0-.009-.76-1.134-.835-1.311l.178-.401c.383.245.498 1 .933 1.403.484.075.544.13.945-.143.123-.94-.092-1.202-.38-2.062l.118-.17.024-.03c.356-.443 1.413-.64 1.958-.803Z"/>
  <path fill="#152A36" d="M11.054 14.365c.48-.09 1.32.051 1.755.257 1.05.495 2.015 1.601 2.404 2.68.498 1.384.629 3.267-.014 4.622-.554 1.17-1.43 1.58-2.578 1.988-1.13.045-1.927.093-2.917-.57-.98-.659-1.65-2.317-1.864-3.425-.259-1.344.224-2.826.98-3.936.605-.886 1.163-1.416 2.234-1.616Z"/>
  <path fill="#fff" d="M17.801 27.497c-.295 0-1.899-2.406-1.604-2.406.295 0 2.797-.555 2.797-.264 0 .29-.776 2.67-1.193 2.67Zm-6.938-12.33c.144-.038.29-.066.44-.074.466-.024 1.22.192 1.552.508.562.534.707.822.722 1.571-.834.996-1.762 1.438-2.918 1.976l-2.17.731c.092-.863.132-1.915.497-2.707.408-.887.938-1.663 1.877-2.005Zm3.377 2.606.282.165.17 1.063c.076.872.014 2.458-.567 3.145-.539.637-1.192.857-2.002.924-1.177.097-1.63-.211-2.513-.956l-.574-1.133.167-.401c.879-.368 1.727-.753 2.684-.862.09.155.188.332.314.46.371.382.593.36 1.09.356.68-.894.326-1.863.925-2.727l.024-.034Z"/>
</svg>
