<svg xmlns="http://www.w3.org/2000/svg" width="56" height="39" fill="none" viewBox="0 0 56 39">
  <path fill="#152A36" d="M40.118 33.262c.111-.087.232-.165.36-.231.783-.411 10.161-.357 11.225-.066.296.207.584.45.957.503-.5.196-1.074.255-1.608.32-2.549.308-5.344.113-7.918.094-.47-.004-1.895.105-2.268-.076-.247-.12-.522-.38-.748-.544Z"/>
  <path fill="#fff" d="M41.053 19.566c.56-.3 1.087-.542 1.432-1.076.386.957 1.324 1.888 1.86 2.86 1.518-.726 2.96-1.324 4.682-.787a4.63 4.63 0 0 1 2.736 2.284c.302.58.443 1.693.787 2.14.229.297.917.66 1.239.913 1.714 1.34 2.306 3.127 1.582 5.145-.408 1.138-1.625 1.932-2.71 2.423-.374-.053-.662-.296-.958-.503-1.064-.291-10.442-.346-11.226.066a2.339 2.339 0 0 0-.359.231c-.501.058-1.004-.1-1.488-.212-.609 1.086-2.083 1.957-3.3 2.312l-.075.021c.346-.303.736-.523 1.059-.86l-.498-.32c.575-.385 1.395-.988 1.751-1.57.937-1.53 1.17-3.591 1.567-5.3l1.92-7.767Z"/>
  <path fill="#152A36" d="M41.053 19.566c.56-.3 1.087-.542 1.432-1.076.386.957 1.324 1.888 1.86 2.86 1.518-.726 2.96-1.324 4.682-.787a4.63 4.63 0 0 1 2.736 2.284c.302.58.443 1.693.787 2.14.229.297.917.66 1.239.913 1.714 1.34 2.306 3.127 1.582 5.145-.408 1.138-1.625 1.932-2.71 2.423-.374-.053-.662-.296-.958-.503.806-.256 1.6-.584 2.17-1.2.687-.744 1.096-1.615 1.019-2.615-.07-.921-.567-1.874-1.304-2.477-.481-.394-1.354-1.075-2.017-1.016-1.27.113-1.791.746-2.579 1.61l-.292-.236.032-.086c.432-1.047 2.098-1.622 3.104-2.019-.363-1.036-.762-2.183-1.65-2.927-.863-.723-1.937-.96-3.061-.875-1.179.088-2.177.77-2.922 1.596l-.365-.135c-.196-1.15-.93-2.212-1.504-3.232-.584.579-1.053 3.791-1.255 4.68-.677 2.968-1.317 6.182-2.449 9.017-.609 1.086-2.083 1.957-3.3 2.312l-.075.021c.346-.303.736-.523 1.059-.86l-.498-.32c.575-.385 1.395-.988 1.751-1.57.937-1.53 1.17-3.591 1.567-5.3l1.92-7.767Z"/>
  <path fill="#fff" d="m16.126 5.476.455-.073c.038.13.06.265.06.4.001.434-1.113 4.882-1.282 5.042l-.56-.237c-.494-.127-.797-.21-1.121-.616.934-1.43 1.053-3.394 2.448-4.516Z"/>
  <path fill="#152A36" d="m5.671 9.171.743-.104.235.377-1.56 3.371-.625.173-.867-.087-.334-.445c-.026-.433-.065-.935.109-1.345.38-.898 1.4-1.576 2.3-1.94Zm8.745-3.285c.183.031.29.184.411.308-.521 1.365-1.255 2.55-1.636 3.98-.86-.464-1.837-.782-2.751-1.138-.67-.193-1.296-.23-1.7-.789.362-.576 1.192-.634 1.849-.864 1.296-.456 2.579-.933 3.827-1.497Zm-1.07 4.834 2.007.813c-.113.99-.566 1.995-.793 2.975-.175.753-.12 1.58-.54 2.259h-.51c-.63-.475-1.68-.651-2.449-.871l2.285-5.177Z"/>
  <path fill="#fff" d="M10.857 16.34c.924.193 1.992.71 2.914 1.003l-1.198 4.966-.414.205-3.448-1.401 2.146-4.773Z"/>
  <path fill="#152A36" d="M8.288 21.898c1.063-.229 3.061.867 4.095 1.305-.38 1.528-.386 3.179-.777 4.644-.115.431-.45.553-.678.898-.196.297-.254.813-.318 1.16l-.624.172-.362-.304.04-.482.866-.603c-.213-.557-.996-.707-1.397-1.125-.515-.536-.94-1.558-1.179-2.244-.484-1.394-.356-2.138.334-3.42Zm-3.116-7.595c1.202-.337 4.032 1.223 5.21 1.754l-1.946 4.15c-.004.16-.292.394-.41.519-.677.094-1.48-.4-2.079-.677-.696-1.22-1.48-2.55-1.618-3.956-.085-.864.292-1.173.843-1.79Z"/>
  <path fill="#fff" d="M7.604 8.76c1.228-.19 3.903 1.374 5.193 1.846l-2.172 4.938c-1.595-.879-3.472-1.48-5.201-2.093l1.396-3.124c.274-.604.255-1.079.784-1.567Z"/>
  <path fill="#fff" d="m11.145 4.288 4.119-1.533c.862-.323 1.49-.701 2.451-.678l-.797 2.362-8.01 3.121c-1.271.484-2.798.857-3.96 1.525-.839.483-1.618 1.087-2.018 1.96-.559 1.221-.36 2.537.158 3.737l4.67 11.168c.328.775 1.286 2.27 1.359 3.03.02.2-.074.514-.103.721-.462.362-.6.502-1.21.59-1.507-2.009-2.391-5.172-3.383-7.486-1.433-3.343-3.343-6.902-4.31-10.378-.146-.529-.136-1.165-.039-1.704.182-1.007 1.072-2.157 1.946-2.742C4.53 6.298 8.29 5.476 11.145 4.288Zm3.234 33.988-.047-.027-.299-.143c-.542-.238-1.416-.138-2.014-.137-2.46.004-7.458.855-8.54-1.828-.226-.56-.154-1.351.106-1.893.293-.612 1.062-1.253 1.728-1.474.464-.154 1.296-.064 1.652-.239.586-.288.738-1.04 1.126-1.452.795-.843 2.213-.12 3.044.247.256-1.053.472-2.946 1.525-3.572.754-.449 1.956-.8 2.838-.591.947.224 1.806.774 2.305 1.582.338.547.37 1.415.99 1.59.625-.705 1.049-1.1 2.047-1.18 1-.082 1.785.12 2.55.744a2.41 2.41 0 0 1 .896 1.736l.015.524c-.605.594-1.396.575-1.886 1.334l.25.104c.575-.37 1.067-.661 1.745-.822 1.053.284 1.778.504 2.33 1.447.224.383.224 1.413.098 1.844-.168.572-.734 1.284-1.282 1.573-1.505.795-3.732-.11-5.227.631l-.735-.33c-.392.071-.613.303-.997.162-.566-.207-.437-.157-1.134-.193-.477.137-.758.032-1.114.194-.366-.162-.599-.001-.944-.194-.358.181-.248-.01-.429.336.14-.486-.271-.18-.352-.143l-.245.17Z"/>
  <path fill="#fff" d="M18.815 2.124C19.61 1.257 20.402.67 21.43.068c.793-.043 1.66-.12 2.446-.016 2.511.332 5.096 1.128 7.57 1.692L38.49 3.3c1.288.316 2.76.607 3.793 1.462.798.662 1.43 1.766 1.484 2.775.058 1.079-.325 2.23-.545 3.28l-4.088 16.516c-.398 1.708-.63 3.77-1.567 5.3-.356.581-1.176 1.184-1.75 1.57l-.037.012c-2.213.772-6.332.035-8.457-.918-1.042-.468-1.992-1.134-2.383-2.161l.216-.327c2.164.237 4.241.873 6.36 1.303 1.02.207 2.263.117 3.153-.442 2.419-1.518 2.62-4.518 3.228-6.968l1.502-6.287-.353-.29c.193-.56.69-.457.83-1.154l-.476-.513c-.005-.182-.089-.789-.023-.923.197-.408.809-.599 1.013-1.155.167-.455.135-.512-.084-.945l.04-.033c.886-.775 1.23-2.74 1.275-3.857.042-1.057-.389-1.968-1.137-2.73-1.202-1.225-2.887-1.517-4.53-1.907L29.467 3.47c-1.793-.4-3.796-1.084-5.645-1.134-1.029-.029-2.141.517-2.866 1.184-.52.478-.938 1.184-1.18 1.83-.961 2.557-1.39 5.515-2.035 8.173-.974 4.008-2.64 8.364-2.715 12.48-.392.551-1.87.73-2.608.937l4.184-16.702c.704-2.718 1.182-5.484 2.214-8.114Z"/>
  <path fill="#fff" d="M39.045 18.125c-1.492 3.568-1.45 7.811-3.041 11.369a3.842 3.842 0 0 1-2.164 2.012c-1.614.606-4.075-.312-5.71-.664-1.057-.228-2.332-.392-3.316-.814-1.05-.45-1.52-1.294-2.784-1.535-.553-.106-2.966.338-3.188.215-.344-.19-.82-.854-1.13-1.144-.616-.576-1.338-.923-2.121-1.253l.017-1.245c.097-2.214.999-4.633 1.51-6.805l1.994-8.103c.39-1.594.664-3.278 1.25-4.819a3.92 3.92 0 0 1 1.114-1.583 3.73 3.73 0 0 1 2.656-.896c2.118.145 4.559.949 6.633 1.429l6.31 1.42c.95.233 2.332.576 2.985 1.32.311.354.997 1.51 1.082 1.959.043.225-.135.818-.18 1.066-.205 1.137-.523 2.23-.657 3.381.22.433.251.49.084.945-.204.556-.816.747-1.013 1.155-.066.134.018.74.023.923l.475.514c-.139.696-.636.593-.83 1.152Z"/>
  <path fill="#152A36" d="m27.067 19.755-.22-.528c.58-.542.637-.549 1.452-.565.415.408.699.689.813 1.261l-.296.244c.054 1.157.521 1.542 1.219 2.469-.25.1-2.36-.639-2.797-.739-.88-.201-1.83-.261-2.73-.327l2.56-1.815Zm5.296 4.812.596-.07c1.014.486 1.658 2.665 2.117 3.666a.693.693 0 0 1-.115.217c-.472.535-1.813 1.312-2.546 1.43l-1.305-.311c-.553-.516-1.047-1.117-1.262-1.836-.123-.41-.205-.802.02-1.192 1.027-.44 1.719-1.154 2.495-1.904Z"/>
  <path fill="#152A36" d="M27.067 19.755c-1.457-.44-2.788.658-3.835-1.258-.288-.525-.451-1.042-.242-1.628.207-.58.627-1.353 1.24-1.628.5-.224 2.286-.156 2.418-.46.448-1.032.063-1.79 1.434-2.433.63-.295 1.204-.413 1.88-.177.453.158 1.177.744 1.382 1.172.276.572.13 1.969.012 2.602.984.605 1.88 1.049 2.138 2.22.144.652-.036 1.29-.428 1.837-.334.466-.89.876-1.484.968-1.022.157-1.856-.172-2.676-.732-.057-.038-.048-.034-.09-.071l.296-.244c-.114-.572-.398-.853-.813-1.26-.815.015-.872.022-1.452.564l.22.528Z"/>
</svg>
