<svg xmlns="http://www.w3.org/2000/svg" width="36" height="41" fill="none" viewBox="0 0 36 41">
  <path fill="#fff" d="M18.07.055c.246-.02.573.077.797.17 1.021.43 2.028 1.024 3.015 1.534l10.843 5.58c.81.418 1.704.789 2.473 1.268.273.17.49.397.606.703.098.258.06.619.06.893V25.85l-.008 4.302c-.007.23-.02.45-.12.661l-.017.035-.074.144c-.136.23-.39.423-.617.556l-3.257 1.69-7.346 3.767-3.918 2.017c-.677.346-1.442.855-2.182 1.032a1.493 1.493 0 0 1-.629-.12c-.638-.276-1.252-.634-1.872-.95L1.485 31.62c-.274-.145-.812-.49-.887-.817C.43 30.074.53 29.134.53 28.385L.531 9.829c.012-.287.036-.545.198-.792.17-.258.402-.407.664-.556l2.9-1.473 6.004-3.084 4.892-2.522C16.07.952 17.11.256 18.07.055Zm14.815 16.198-1.668.808c-.028.68.062 1.45-.048 2.112-.014.08-.012.137-.073.193-.28.257-.645.4-.98.572-.377.196-.875.55-1.31.524-.095-.005-.153.003-.216-.072-.297-.35-.084-2.76-.16-3.403-.62.295-1.275.572-1.848.953l-.009 3.36c0 .478.061 1.05-.022 1.515a.753.753 0 0 1-.123.273c-.457.369-1.092.63-1.619.895-.202.1-.42.247-.654.22a.402.402 0 0 1-.253-.111c-.165-.346-.12-.803-.121-1.178-.005-.706.03-1.43-.018-2.133-.598.28-1.274.54-1.822.906-.03.45.078 2.153-.23 2.41-.352.294-.886.488-1.297.699-.485.247-1.01.583-1.524.756a.833.833 0 0 1-.389.041c-.104-.011-.135-.062-.208-.131-.115-.352-.09-.727-.094-1.092-.004-.352.053-.856-.018-1.197-.06-.29-1.802-1.097-2.145-1.271l-.63-.3c.02.575.144 2.078-.196 2.53-.234.093-.302.098-.541-.006-.462-.2-2.8-1.235-2.921-1.522-.12-.285-.055-.956-.065-1.286-.002-.084.013-.275-.026-.342-.048-.082-.245-.184-.33-.233-.413-.243-1.02-.424-1.363-.748-.254-.241-.16-.973-.165-1.315 0-.03.005-.188-.003-.197-.04-.05-.225-.129-.287-.163l-1.093-.552c-.145-.069-.304-.165-.462-.195l-.01 1.69c-.003.271.025.586-.036.848a.678.678 0 0 1-.176.329c-.174.076-.352.03-.522-.035-.488-.186-.967-.465-1.431-.707-.145-.075-.45-.195-.515-.351-.109-.265-.016-.968-.153-1.128-.122-.142-.624-.335-.809-.421-.137-.064-.38-.206-.525-.221l-.398-.174-.08.078-.006 11.89c.786.505 1.685.898 2.515 1.329l11.555 5.932c.28.141.58.325.887.391l11.307-5.817 2.302-1.178c.336-.17.94-.381 1.185-.654l.024-13.065c-.083-.064-.08-.067-.183-.056Z"/>
  <path fill="#fff" d="M30.645 21.483a.504.504 0 0 1 .493.156c.103.355.074.77.077 1.138.004.372.052.828-.092 1.174-.054.13-.367.285-.487.35-.543.299-1.094.59-1.666.83-.091.004-.197.016-.282-.023-.114-.052-.162-.12-.2-.24-.056-.174-.044-.435-.051-.62-.017-.433-.122-1.362.074-1.738.093-.178.356-.256.534-.34.526-.246 1.047-.51 1.6-.687ZM8.182 23.396a.951.951 0 0 1 .198-.026c.478-.015 1.19.415 1.625.621.226.107.496.21.675.385.139.135.087.866.086 1.06-.003.458.086 1.188-.262 1.532l-.15.044c-.785-.163-1.678-.738-2.37-1.148-.124-.57-.062-1.366-.015-1.95.018-.225.04-.369.213-.518Zm17.762 1.818a.817.817 0 0 1 .468.08.67.67 0 0 1 .118.21c.128.386.049 1.11.043 1.523-.002.19.022.43-.07.603l-.012.023c-.109.203-.38.32-.576.425l-1.562.789c-.144.03-.243.003-.38-.036a.37.37 0 0 1-.122-.16c-.162-.43-.08-1.139-.082-1.6-.002-.248-.035-.575.067-.803.145-.324 1.703-.9 2.108-1.054Z"/>
</svg>
