<svg xmlns="http://www.w3.org/2000/svg" width="44" height="35" fill="none" viewBox="0 0 44 35">
  <path fill="#fff" fill-rule="evenodd" d="M8.066 26.635c-.222 2.767.054 4.494 1.824 6.576 0 0 .7 1 1 1 .5 0 1.325-.109 2.125-.375a4.1 4.1 0 0 0 .813-.341c.131-.067.306-.157.562-.284.932-.464 1.954-.975 2.805-1.594 1.833-1.331 5.133-4.503 5.494-6.781-.18-.969-.258-1.314-.89-2.074-1.764-2.117-5.46-4.497-8.27-4.744-.77-.068-1.842.044-2.445.554-1.713 1.447-2.84 5.84-3.018 8.063Zm1.824.076c-.354-.354.056 4.372 1.5 5 1.266.55 4.5-.5 5-1.5.041-.083-.4-.171-1.002-.29-.798-.16-1.88-.375-2.498-.71-1.094-.594-2.486-1.986-2.992-2.492l-.008-.008Zm3.172-3.95c.642.21.937 2.076.775 1.945l-.003-.003c-.233-.187-.87-.703-1.36-.908-.276-.117-.75-.173-1.1-.214-.264-.032-.458-.054-.442-.088.192-.412 1.567-.917 2.13-.733Zm5.594 5.536c.121.17.332-1.71-.23-2.082-.494-.328-1.954-.206-2.248.14-.025.028.156.102.402.202.326.133.769.313 1.004.499.417.328.895.995 1.07 1.237l.002.004Z" clip-rule="evenodd"/>
  <path fill="#fff" fill-rule="evenodd" d="M9.125 10.125c-.938.152-2.5 1-2.5 1-.62.348-1.23.642-1.82.926-1.953.94-3.687 1.774-4.805 4.14.026 2.899 2.861 6.566 4.876 8.544.665.654 1.309 1.19 2.249 1.374l.5.016c.074-.854.5-2.5.5-2.5l.427-1.282c-.586.468-1.272.9-1.524.605-.447-.523.93-1.43 1.894-2.066l.156-.102c.1-.066.175-.089.234-.085.09-.191.202-.409.313-.57.052-.075.1-.153.147-.232a8.18 8.18 0 0 0 .098-.171l.053-.095c.182-.328.375-.675.702-1.002.498-.498.83-.785 1.5-1 .744-.238 2 0 2 0-.19-2.252-.945-4.826-2.48-6.5 0 0-.505-.784-1.02-1-.453-.19-.794-.127-1.233-.047a9.62 9.62 0 0 1-.267.047Zm-.52 5.271c-.198-.066.72 1.133 1.395 1.104.592-.025 1.716-.536 1.751-.988.004-.053-.442-.039-.913-.024-.31.01-.63.02-.838.012a19.599 19.599 0 0 0-.222-.007l-.142-.004h-.002c-.416-.011-.813-.021-1.03-.093Zm-3.527 3.335c-.363.57-1.745.394-1.578.269a5.747 5.747 0 0 0 1.192-1.263l.137-.192c.255-.361.506-.715.552-.677.351.288.015 1.364-.303 1.863Z" clip-rule="evenodd"/>
  <path fill="#FFFEFF" d="M38.3 20.102c.407-.06.846-.124 1.257-.095 1.354.098 2.89 1.52 3.732 2.503.357 1.095.698 2.151.366 3.293-.484 1.659-1.782 2.488-3.202 3.265-.863.273-1.035.416-1.914.093-.954-1.719-3.257-5.248-3-7.089.788-1.03 1.616-1.448 2.76-1.97Zm-4.31 3.519c1.096 1.262 2.196 4.002 2.703 5.606-.748.897-2.474 1.156-3.609 1.57-2.817 1.026-5.458 2.143-8.367 2.934-.294.278-.534.228-.928.26-.812-.637-1.295-1.766-1.789-2.657 1.721-1.605 4.106-2.917 6.128-4.11l5.863-3.603Z"/>
  <path fill="#fff" d="m32.776 2.25.32.03c2.192 1.422 3.341 3.882 4.78 5.969l4.037 5.688c.007.554.082.736-.32 1.153-1.052 1.088-3.019 1.827-4.289 2.747-1.202.87-2.267 2.245-3.278 3.343-.755.137-1.654.238-2.355.547-1.712.753-4.856 3.483-6.528 3.276-1.001-.599-1.762-2.057-2.421-3.013l-4.205-6.054c-.6-.967-1.317-2.012-1.523-3.146l.43-.307c.849.253 1.715 2.007 2.217 2.724 1.696 2.426 3.464 5.502 5.655 7.438 1.111.244 3.86-1.704 5.154-2.124.94-.305 2.018-.38 2.998-.508 1.592-2.373 2.48-3.578 4.867-5.233.668-.464.842-.568 1.175-1.322-.635-2.886-3.853-6.135-5.54-8.59-.545-.792-1.351-1.666-1.174-2.619Z"/>
  <path fill="#fff" d="m22.39 6.928.86-.019c.457.032.934.192 1.27.51.904.857 1.578 2.234 2.28 3.27 1.9 2.796 3.856 5.914 6.079 8.455-2.494.485-4.245 1.217-6.456 2.443-.478.39-.57.359-1.193.36-1.655-2.009-2.932-4.211-4.433-6.314-.91-1.276-3.865-4.482-3.846-5.852 1.008-1.704 3.644-2.28 5.438-2.853Zm7.368-5.898c.324.058.793.362 1.069.548.675.457 1.188 1.604 1.675 2.275l4.677 6.702c.517.779 1.292 1.641 1.473 2.562-.44 1.07-1.444 1.502-2.329 2.245-.95.799-1.801 1.723-2.655 2.624l-.633.252-8.376-12.12c1.094-1.761 3.136-4.338 5.099-5.088Z"/>
</svg>
