<svg width="41" height="72" viewBox="0 0 41 72" fill="none" xmlns="http://www.w3.org/2000/svg">
<path d="M1.53199 3.12251C1.72346 3.04994 1.93223 2.98975 2.13895 2.99385C2.70082 3.005 3.25916 3.28438 3.63906 3.69306C4.14025 4.23213 4.06735 4.74176 4.0571 5.42097C3.78691 6.05188 3.35214 6.35397 2.80725 6.74568L2.29155 6.9105C1.70616 6.79267 1.26582 6.61145 0.833839 6.18537C0.255083 5.61465 0.273288 5.10265 0.271484 4.35251C0.610391 3.78122 0.982752 3.4861 1.53199 3.12251Z" fill="#494D55"/>
<path d="M37.0024 51.7075C37.129 51.6618 37.2527 51.6266 37.3879 51.6179C38.0483 51.5752 38.5843 52.1208 39.0347 52.5275C39.2865 53.1524 39.406 53.4091 39.2614 54.0897C39.124 54.7357 38.5864 55.0842 38.0675 55.4241C37.802 55.4791 37.5193 55.5304 37.2474 55.5166C36.5473 55.481 36.099 54.9828 35.666 54.4912C35.4491 53.9619 35.4692 53.5981 35.5539 53.04C35.9653 52.3855 36.3195 52.068 37.0024 51.7075Z" fill="#494D55"/>
<path d="M16.9834 38.2922C18.3602 36.7585 19.5088 35.7639 21.6707 35.6513C24.0652 35.5267 26.1541 35.4668 28.052 37.1773C28.4014 37.4922 28.6926 37.8461 28.9671 38.2265C29.4816 39.6033 29.5768 40.7326 29.5512 42.1935C29.3286 43.8758 29.0069 46.195 29.2518 47.8631L28.3501 62.196C28.2371 63.9247 28.3182 65.9425 27.9287 67.6241C27.7595 68.3546 27.2855 69.2338 26.8119 69.8095C26.0516 70.7338 24.7321 71.395 23.5435 71.5109C22.2936 71.6328 20.9877 71.3175 20.0084 70.508C19.2437 69.8759 18.6218 69.119 18.3274 68.1553C17.5934 65.7527 17.7691 62.9391 17.6237 60.436L16.7418 47.6044C16.9955 47.0956 16.7757 45.544 16.7438 44.8918C16.6337 42.6411 16.3587 40.4948 16.9834 38.2922Z" fill="#494D55"/>
<path d="M20.7843 47.11C20.6997 46.0081 20.0109 40.6068 20.5423 39.9945C20.8773 39.6086 21.3827 39.5428 21.8662 39.515C22.8927 39.456 24.4464 39.3557 25.3573 39.8195C26.1581 40.8771 25.5689 45.4992 25.3794 46.8565L25.3009 47.3257C23.8954 47.1419 22.089 47.5758 20.7843 47.11Z" fill="#BB6C71"/>
<path d="M20.7842 47.11C22.0889 47.5759 23.8953 47.1419 25.3007 47.3257L24.593 59.4645C24.4407 61.9043 24.5864 64.9745 23.829 67.2875C23.4334 67.6937 23.3481 67.7055 22.7947 67.7598L22.3478 67.39C21.9273 66.4747 21.9284 65.3946 21.8535 64.4026L21.5324 59.1244L20.7842 47.11Z" fill="#836976"/>
<path d="M13.985 46.4624C13.2002 46.8362 12.7165 46.9922 11.8271 46.8532C8.80096 45.212 6.63484 40.8041 5.68873 37.629C3.50892 30.3137 7.42844 24.0085 10.3227 17.6431C11.7597 14.4828 13.0967 11.1509 14.7565 8.10449C15.0649 7.53837 15.3841 7.14928 15.9271 6.79717C16.6352 6.68942 17.0813 6.64694 17.7021 7.09967C18.5747 7.73607 19.205 9.0862 19.5805 10.0712L22.6394 4.54201C23.4196 3.10881 24.156 1.23937 25.5621 0.332126C26.2256 0.258695 26.6998 0.264608 27.2713 0.698084C28.303 1.4806 29.1567 4.01319 29.7109 5.19604L34.5375 15.43C36.2124 18.9763 38.1963 22.559 39.6156 26.2062C40.2522 27.8421 40.6626 29.5183 40.854 31.2647C41.3593 35.8732 40.0575 40.5415 37.1419 44.1611C36.3263 45.1737 34.7563 47.2453 33.4551 47.3867C32.7792 47.4601 32.0542 47.1372 31.4365 46.892C30.7735 47.373 30.0459 47.6715 29.2516 47.8631C29.0067 46.195 29.3284 43.8758 29.551 42.1935C29.5766 40.7326 29.4814 39.6033 28.9669 38.2264C28.6924 37.8461 28.4012 37.4921 28.0518 37.1773C26.1539 35.4667 24.065 35.5267 21.6705 35.6513C19.5086 35.7639 18.36 36.7585 16.9832 38.2922C16.3585 40.4948 16.6335 42.6411 16.7436 44.8917C16.7755 45.544 16.9953 47.0956 16.7416 47.6044C15.665 47.4195 15.0092 46.6273 13.985 46.4624Z" fill="#494D55"/>
<path d="M23.4893 11.1234L25.9868 6.50435L32.4765 20.1005C33.9545 23.2557 35.9891 26.6501 36.7232 30.0548C37.2783 32.6287 37.1914 34.8988 36.3901 37.4046C35.8556 39.0759 34.9792 40.6911 33.8398 42.0282C33.1269 42.8649 31.6918 43.91 31.331 44.9215C31.1422 45.4506 31.2716 46.1591 31.4973 46.6685L31.4372 46.892C30.7742 47.373 30.0466 47.6715 29.2523 47.8631C29.0074 46.195 29.3291 43.8758 29.5517 42.1935C29.8492 41.8776 30.1823 41.5591 30.4288 41.2022C32.2727 38.5326 33.1182 33.6208 32.5088 30.4745C31.9859 27.7739 30.5314 25.0273 29.3181 22.5638L26.3616 16.2468C25.7238 14.8944 25.1769 13.221 24.3976 11.9788C24.184 11.6385 23.8173 11.3443 23.4893 11.1234Z" fill="#FF6A3A"/>
<path d="M23.4892 11.1234C23.8172 11.3443 24.184 11.6385 24.3975 11.9788C25.1768 13.221 25.7237 14.8944 26.3616 16.2468L29.318 22.5638C30.5314 25.0273 31.9858 27.7739 32.5088 30.4745C33.1181 33.6208 32.2726 38.5326 30.4287 41.2022C30.1822 41.5591 29.8491 41.8776 29.5516 42.1935C29.5772 40.7326 29.482 39.6033 28.9675 38.2265C28.693 37.8461 28.4018 37.4921 28.0524 37.1773C26.1545 35.4667 24.0657 35.5267 21.6712 35.6513C19.5093 35.7639 18.3606 36.7585 16.9838 38.2922C16.3591 40.4948 16.6342 42.6411 16.7442 44.8918C16.7762 45.544 16.996 47.0956 16.7422 47.6044C15.6657 47.4196 15.0098 46.6273 13.9856 46.4625C14.1499 46.023 14.4535 45.318 14.3861 44.84C14.2415 43.8151 12.2279 42.0992 11.5754 41.2143C10.8883 40.2826 10.3448 39.2899 9.92222 38.2126C9.28926 36.5988 8.79521 34.6464 8.87828 32.9035C9.07426 28.7889 11.1325 25.0949 12.8398 21.4449L16.815 12.6976C17.3215 13.5369 18.0076 14.9461 18.8377 15.4655C19.4168 15.8277 19.9009 15.7773 20.5412 15.6275C21.8595 14.7788 22.7483 12.503 23.4892 11.1234Z" fill="#E98873"/>
<path d="M16.984 38.2922C15.6405 36.3269 14.5826 33.9691 15.0299 31.5385C15.2979 30.0815 16.0887 28.6375 16.7176 27.3006L19.9294 20.6438C20.3492 20.9263 20.7981 22.2155 21.0543 22.6994L24.3128 28.6218C24.9453 29.7777 25.6028 31.2839 26.576 32.1909L28.4703 28.9781C28.6801 28.6077 28.9462 27.9469 29.3152 27.7303C30.599 29.6237 31.3512 31.7622 30.907 34.0645C30.6217 35.5434 29.8976 37.0529 28.9677 38.2264C28.6932 37.8461 28.402 37.4921 28.0526 37.1773C26.1547 35.4667 24.0658 35.5267 21.6714 35.6513C19.5094 35.7639 18.3608 36.7585 16.984 38.2922Z" fill="white"/>
</svg>
