<svg xmlns="http://www.w3.org/2000/svg" width="317" height="405" fill="none" viewBox="0 0 317 405">
  <path fill="#51B0AF" d="M154.841 80.275c1.597-1.02 3.295-1.785 5.236-1.322 1.075.257 2.078.717 3.13 1.025.646.19 1.363.105 2.026.24l-1.936.125.182.592c-.633.944-4.548 1.8-5.765 2.2-.22-1.156-.912-2.139-1.78-2.92l-1.093.06Z"/>
  <path fill="#0C1819" d="m164.848 336.464 1.383.478c1.737.518 4.503 1.879 5.515 3.376-3.235.599-6.622 1.273-9.91 1.405.636-1.8 1.981-3.644 3.012-5.259Z"/>
  <path fill="#1B383A" d="M306.506 288.72c1.931.165 3.76.854 5.488 1.72l.217-.312c-.023 1.853.176 10.611-.377 11.526-.123-.066-.277-.093-.37-.198-.428-.486-.9-2.385-1.164-3.072l-3.794-9.664Z"/>
  <path fill="#2F6768" d="M284.399 164.689c.433-.034.724-.001 1.091-.244l-.082-.395c-1.011-.967-3.055-1.15-4.399-1.446 2.016-.612 4.465-.523 6.564-.549-.247.568-.491 2.087-.475 2.72-.058 1.412-.43 1.881-1.418 2.808-2.717 1.528-5.746 2.298-8.847 1.747l-.705-.615 2.965-1.472c1.736-1.119 3.253-2.103 5.306-2.554Z"/>
  <path fill="#51B0AF" d="M279.093 167.243c1.736-1.119 3.253-2.103 5.306-2.554l1.019.13.154.218c-.594 1.009-1.456 1.617-2.586 1.908-1.214.312-2.426.554-3.669.334l-.224-.036Z"/>
  <path fill="#0C1819" d="M148.024 327.946c1.612-.019 3.388 1.215 4.8 1.93 1.909.969 4.328 1.919 5.9 3.378l-3.851 6.309c-2.703-3.644-4.762-7.608-6.849-11.617Z"/>
  <path fill="#70BDBD" d="M287.573 162.055c2.146-.628 3.917-1.783 5.824-2.907l5.741-3.25c4.267-2.392 8.72-4.387 12.713-7.237.853 3.17.453 7.091.456 10.376.002 1.375.2 3.153-.056 4.486a19.956 19.956 0 0 0-.094 2.83l-25.059-1.578c-.016-.633.228-2.152.475-2.72Z"/>
  <path fill="#51B0AF" d="m238.87 212.46 17.908-30.3 13.028 32.92c-1.404-.07-3.067-.784-4.444-1.171-2.117-.595-4.258-1.123-6.423-1.502l-3.016-.384c1.115-3.832 2.086-7.425 2.266-11.451.033-.728.188-1.693-.096-2.368l-.26.113-.463 3.342c-.485 3.467-2.29 6.811-3.78 9.939l-14.359 1.278-.361-.416Z"/>
  <path fill="#224B4C" d="M140.204 307.705c.964-.49 1.98-1.004 2.999-1.364.875-.309 1.876-.415 2.672-.901.177-.108.303-.205.509-.249.709-.152 2.509 1.151 3.201 1.548l.153.246c.413.674.696 1.435 1.191 2.057.782.984 2.066 1.593 3.205 2.056 2.224-.199 4.771-1.166 6.673.415 1.359 1.129 2.255 2.507 3.792 3.511.936.611 1.959 1.111 2.95 1.624.221.115.736.299.872.5l-9.696 16.106c-1.572-1.459-3.99-2.409-5.9-3.378-1.412-.715-3.187-1.949-4.8-1.93-2.042-2.547-3.479-5.645-5.073-8.478l-5.96-10.126 1.946-.89 1.266-.747Z"/>
  <path fill="#AED9DA" d="M98.511 39.256c4.461-.89 8.24 1.75 12.296 2.88 2.914.813 6.014 1.358 9.002 1.815 2.051.314 4.237-.458 6.32-.404 2.476.063 5.145.853 6.909 2.641.424.43.725.807.963 1.37.357.845.473 1.654.123 2.496-2.275.919-4.583.923-7.008.955l-6.921.034-13.261.032-13.185.194c-6.418.251-12.933.827-19.354.592-.942-.035-1.833-.056-2.688-.503-.395-.525-.436-.869-.438-1.517 1.925-3.882 6.883-3.837 10.457-5.129 2.243-.81 4.568-2.06 6.656-3.2 2.986-1.63 6.801-1.859 10.129-2.256Z"/>
  <path fill="#70BDBD" d="m39.488 223.165 15.498-39.164 22.537 38.407-.253.369c-8.164.695-16.044 2.528-23.79 5.166-1.315-.7-2.901-1.054-4.32-1.524l-6.137-2.081c-1.063-.33-2.669-.516-3.535-1.173Z"/>
  <path fill="#469797" d="m312.251 163.523-.007 65.263c-.134.415-.197.844-.276 1.272-2.23-.396-4.385-1.387-6.611-1.64l-.199-.019c-.329-.481-.542-1.38-1.086-1.558l-.869.805-11.478-4.203c-1.52-.464-2.139-1.774-3.383-2.646 1.148-.9 2.019-1.954 2.82-3.169 5.972-9.061 7.339-22.285 5.119-32.738-.92-4.336-2.846-8.055-5.345-11.69-1.454-2.115-3.086-4.198-5.256-5.617.988-.927 1.36-1.396 1.418-2.808l25.059 1.578a19.956 19.956 0 0 1 .094-2.83Z"/>
  <path fill="#2F6768" d="m281.047 219.842.187-.168c1.31-1.179 1.627-2.465 1.811-4.156.483.891 1.285 2.765 2.106 3.304.502.328 1.387.292 1.909.605.424.253.884 1.007 1.282 1.37 1.244.872 1.863 2.182 3.383 2.646l11.478 4.203.869-.805c.544.178.757 1.077 1.086 1.558l.199.019c2.226.253 4.381 1.244 6.611 1.64.079-.428.142-.857.276-1.272l-.037 1.78.004 59.562-.217.312c-1.728-.866-3.557-1.555-5.488-1.72l-6.252-15.593-4.712-11.785-2.767-7.164-.051-.022-4.643-11.557-1.196-2.986-7.351-18.434 1.513-1.337Z"/>
  <path fill="#3B8081" d="M304.224 245.496c.841.547 2.47 1.344 3.041 2.158.217.309.036.679-.035 1.036-.296.17-.362.158-.691.155-1.015-1.033-1.65-2.076-2.315-3.349Zm-17.339-5.883c.463-.18.858-.022 1.309.183l2.095.852.242.146c1.288.798 2.396 1.998 3.782 2.659.983.468 2.238.607 3.318.64l.203.394-.035.702c.653.374 1.236-.086 1.944.397-.248.555-.402.594-.902.911-1.471-.025-2.964.003-4.423-.204-1.122-.098-1.885-1.02-2.653-1.74-1.126-1.059-2.089-1.83-3.684-1.954l-1.196-2.986Z"/>
  <path fill="#35787A" d="m294.418 246.293 2.774-.11.642-1.696-.035.702c.653.374 1.236-.086 1.944.397-.248.555-.402.594-.902.911-1.471-.025-2.964.003-4.423-.204Z"/>
  <path fill="#3B8081" d="m305.158 228.399.199.019c2.226.253 4.381 1.244 6.611 1.64.079-.428.142-.857.276-1.272l-.037 1.78c-.232.579-.031 1.326-.237 1.837-.082.203-.552.631-.712.824-.497.603-1.631 2.094-1.849 2.769-.107.328.126.601.271.903-.125.515-.183.554-.575.92l-.426-.13c-.869-1.738-1.477-3.637-2.136-5.464-.464-1.284-1.018-2.507-1.385-3.826Z"/>
  <path fill="#224B4C" d="M288.081 242.599c1.595.124 2.558.895 3.684 1.954.768.72 1.531 1.642 2.653 1.74 1.459.207 2.952.179 4.423.204.904.826 1.943 1.992 3.024 2.557.951.499 2.166.681 3.208.898-.774.48-1.7.962-2.36 1.594-.349.333-.692 1.092-1.033 1.332-.163.115-1.023.162-1.271.209-.932.173-2.136 1.529-2.852 2.18-.354-.281-1.248-1.183-1.623-1.285-.723-.199-2.08-.024-2.881-.042l-.278.238-.051-.022-4.643-11.557Zm7.461 18.743c.316-.051.74-.18 1.052-.171.843.024 2.408.85 3.333 1.088 2.379.614 4.841.841 7.232 1.427-.403 1.043-.849 2.076-1.053 3.179l5.367 1.376v.303c-1.663.234-3.793-.324-5.472-.553.741.428 2.564 1.202 2.996 1.863-.892.762-1.797 1.516-2.629 2.344-.116.116-.591.69-.717.729-.189.058-.395.034-.592.05-.573-.293-1.005-.608-1.677-.431l-.42.191c-.812.4-1.816.359-2.708.39l-4.712-11.785Zm-14.495-41.5.187-.168c1.31-1.179 1.627-2.465 1.811-4.156.483.891 1.285 2.765 2.106 3.304.502.328 1.387.292 1.909.605.424.253.884 1.007 1.282 1.37 1.244.872 1.863 2.182 3.383 2.646l11.478 4.203c-.68 1-1.266 1.969-1.624 3.133-.328 1.068-.451 2.197-.911 3.225-.466 1.038-1.139 1.833-1.919 2.646-.045.4-.033.303-.309.535l.775.038c.013.805-.915 1.682-1.476 2.267l-.278.283c-1.22.011-2.499.097-3.699-.142-.9.839-2.361.45-3.473 1.017l-2.095-.852c-.451-.205-.846-.363-1.309-.183l-7.351-18.434 1.513-1.337Z"/>
  <path fill="#3B8081" d="M293.762 239.631c-2.361-1.229-4.263-2.498-6.371-4.125 3.699.564 7.296 1.866 11.049 1.679l.775.038c.013.805-.915 1.682-1.476 2.267l-.278.283c-1.22.011-2.499.097-3.699-.142Zm-2.037-16.188 11.478 4.203c-.68 1-1.266 1.969-1.624 3.133-.328 1.068-.451 2.197-.911 3.225-.466 1.038-1.139 1.833-1.919 2.646a19.195 19.195 0 0 0-3.308-1.548c.907-.377 1.623-.721 2.375-1.362.17-.588.28-.676.019-1.252l-2.726-.425.192-2.341-6.272-.158c-.633-.776-1.055-2.044-1.484-2.964.777-1.208 3.516-1.692 4.095-2.952l.085-.205Z"/>
  <path fill="#51B0AF" d="M285.68 167.583c2.17 1.419 3.802 3.502 5.256 5.617 2.499 3.635 4.425 7.354 5.345 11.69 2.22 10.453.853 23.677-5.119 32.738-.801 1.215-1.672 2.269-2.82 3.169-.398-.363-.858-1.117-1.282-1.37-.522-.313-1.407-.277-1.909-.605-.821-.539-1.623-2.413-2.106-3.304-.184 1.691-.501 2.977-1.811 4.156l-.187.168-1.513 1.337-.729-2.019-17.072-42.495c1.532-1.161 3.387-1.994 5.076-2.917l9.319-5.033.705.615c3.101.551 6.13-.219 8.847-1.747Z"/>
  <path fill="#469797" d="M278.805 219.16c.908-.069 1.291-.126 2.013.485l.228.197-1.513 1.337-.728-2.019Z"/>
  <path fill="#3B8081" d="m77.523 222.408 33.705 56.448 1.659 2.657 9.072 15.812-4.603-1.748c-.921-.27-1.515-.769-2.25-1.351-2.417-1.919-4.094-2.256-7.112-2.165l-.604.012c-.934-.569-1.581-1.436-2.221-2.303-.524-.354-1.049-.66-1.422-1.182-.078-.429-.152-.793-.042-1.223.073-.282.095-.472.066-.769-.129.003-.759.07-.835.029-.076-.041-.459-.9-.524-1.024a20.568 20.568 0 0 0-1.446-2.365c-1.007-1.421-2.435-2.452-3.792-3.517-.824-.422-1.366-1.146-1.968-1.831-.884-.964.38-1.819.104-2.949l-.355.063-.931 1.941c-1.802-.158-2.91-.324-4.673.239-.631-.513-1.215-1.661-1.852-2.328 1.231-1.059 3.062-2.406 3.95-3.752.278-.421.114-.911.004-1.375-.208-.878.71-1.694.302-2.622-1.829-.596-3.318 2.496-5.004 2.071-.622-.157-.962-.464-1.275-.985.017-.391.033-.767.144-1.144.093-.312.185-.604.213-.929.107-1.271.288-3.222-.545-4.222-.358-.43-.478-.627-.578-1.184l.126-.136c.928-1.027 1.346-1.745 1.27-3.144-.742-1.285-3.13-1.318-4.476-1.569-1.238-.231-2.529-.522-3.706-.977-2.197-.848-4.118-2.251-6.053-3.565-.089-2.463.117-3.709 1.586-5.666l.13-.171-1.64-.954c-1.108-.53-2.603-.611-3.75-.192-.306.612-.156 1.081-.062 1.742.22 1.544-.214 2.662-.88 4.031-3.173-.821-6.354-1.611-9.45-2.696-.734-.257-1.854-.521-2.426-1.04.323-1.282-.3-1.733-.451-2.862-.042-.313.137-.657.123-.987-.05-1.245-.53-2.693-.76-3.928-.802-.781-1.812-1.576-2.914-1.865-1.885-.494-3.913-.286-5.586.745-1.923 1.185-2.287 3.461-2.783 5.486l-4.767-1.349-2.46-.744c-.958-.237-1.936-.425-2.804-.909l1.382-3.56 5.129-13.237c.866.657 2.472.843 3.535 1.173l6.138 2.081c1.418.47 3.004.824 4.32 1.524 7.745-2.638 15.625-4.471 23.79-5.166l.252-.369Z"/>
  <path fill="#2F6768" d="M105.169 289.77c.786-.149 1.258-.186 2.011.11l.519.521c-.037.493-.074.842-.305 1.283.207.162.358.266.6.377l-.604.012c-.934-.569-1.581-1.436-2.221-2.303Zm-9.963-11.882 3.5-.39-1.532 2.221c-.824-.422-1.366-1.146-1.968-1.831ZM35.78 240.871l.153-.185c.63-.85.07-2.1.849-2.997.611.605.741 1.927 1.235 2.76.205.347.207.772.224 1.166l-2.46-.744Z"/>
  <path fill="#51B0AF" d="m111.228 278.856 1.659 2.657c-.942 1.183-1.319 2.705-1.921 4.08-.21-1.715.102-3.444-.078-5.155l-.065-.606c-.048-.437.176-.617.405-.976ZM34.36 236.402l5.128-13.237c.866.657 2.472.843 3.535 1.173l6.138 2.081c1.418.47 3.004.824 4.32 1.524-1.436.821-2.973 1.384-4.473 2.069l-7.385 3.381-4.613 2.044c-.873.392-1.67.905-2.65.965Z"/>
  <path fill="#1B383A" d="m180.632 345.49 115.347-17.736.395.282c-.302.774-1.222 1.265-1.929 1.693l-8.866 4.853-14.409 7.934-48.121 26.587-42.417-23.613Z"/>
  <path fill="#AED9DA" d="M82.425 118.725c-.548.182-2.471-.158-3.146-.169l-30.554.038-9.773.62c-1.693.043-3.418-.213-5.118-.25l-9.626-.116c-2.551-.099-5.452-.208-7.854-1.166-.861-.343-1.689-.598-2.268-1.368-.266-.842-.237-1.685.122-2.497.2-.455.508-.882.844-1.248 1.97-2.141 6.26-2.195 8.97-2.384.648-.045 1.618.01 2.216-.188.864-.284 1.936-1.414 2.623-2.031 1.325-1.189 2.631-2.322 4.094-3.345 2.376-1.662 5.043-2.968 7.723-4.055 5.995-2.433 13.197-3.477 19.558-2.094 2.37.515 4.807 1.474 7.034 2.426l4.103-6.008c3.993-4.717 10.169-7.385 16.069-8.73 2.206-.502 4.239-1.033 6.514-1.177 5.529-.349 12.901 1.57 17.104 5.329 1.911 1.707 4.532 5.723 4.54 8.379.001.245-.029.494-.16.708-.35.575-.989 1.077-1.45 1.568l-2.849 3.162c-2.063 2.315-3.788 4.743-6.007 6.954-.838 1.534-1.955 2.827-3.248 3.998-.994-.451-2.014-.145-3.065-.048l-3.322.174c-.746.022-1.475.095-2.123-.336l-5.807 2.472c-.993.454-2.13 1.099-3.185 1.359-.654.162-1.305-.01-1.96.023Z"/>
  <path fill="#51B0AF" d="m93.376 114.871 7.797-2.763c1.241-.416 2.639-1.153 3.961-1.025-.838 1.534-1.955 2.827-3.248 3.998-.994-.451-2.014-.145-3.065-.048l-3.322.174c-.746.022-1.475.095-2.123-.336Z"/>
  <path fill="#0C1819" d="m158.876 404.413-.692-55.401 22.448-3.522 42.417 23.613-44.458 24.607-14.811 8.224c-1.331.78-2.968 1.507-4.15 2.479h-.754Z"/>
  <path fill="#70BDBD" d="M82.425 118.725c.654-.033 1.305.139 1.959-.023 1.056-.26 2.192-.905 3.185-1.359l5.807-2.472c.648.431 1.376.358 2.123.336l3.322-.174c1.051-.097 2.071-.403 3.065.048l-45.286 53.3c-.76.89-1.763 2.42-2.71 3.046l-4.849-2.771-39.764-21.745c-1.725-.942-3.668-1.794-5.238-2.975 4.986-3.85 11.603-5.96 17.451-8.159 2.287-.859 4.483-2.097 6.736-3.055 6.999-2.976 14.647-4.506 22.219-3.546 2.577.327 5.307 1.151 7.75 2.025 1.973-1.621 4.073-3.302 6.41-4.365 1.703-.773 3.532-1.19 5.352-1.573 1.832-.384 3.67-.683 5.436-1.324 2.96-1.074 5.688-2.933 8.2-4.807l-.1-.223-1.068-.184Z"/>
  <path fill="#0C1819" d="m151.245 404.413-12.351-7.098-78.88-44.138-20.885-11.071c-8.103-4.216-16.264-8.086-23.413-13.837l122.788 18.678 8.956 1.355c1.371.203 2.894.262 4.228.618l.221 55.493h-.664Z"/>
  <path fill="#1B383A" d="M298.405 286.942c.69 1.179 1.116 2.561 1.617 3.836l2.264 5.629 8.964 22.708-139.504 21.203c-1.012-1.497-3.778-2.858-5.515-3.376l-1.383-.478 11.258-18.899c.874.067 1.807-.243 2.659-.443l5.593-1.417 16.326-4.07c5.548-1.162 11.15-1.408 16.753-2.124 2.897-.37 5.742-1.019 8.584-1.677 1.579-.441 3.188-.914 4.684-1.591l10.925-4.79.828-.43 7.658-4.161.907-.486 5.174-2.823 4.5-1.942c7.047-2.95 14.738-3.975 22.309-4.293 2.098.221 4.079-.072 6.163-.162l4.806-.028c1.025.023 3.649.374 4.43-.186ZM0 149.964c1.339.478 2.472 1.18 3.754 1.746 2.181.933 4.09 2.066 6.125 3.282l.19.274c1.807.484 3.5 1.705 5.13 2.618l9.298 5.293 5.919 3.073 20.248 11.23-17.548 44.831-6.37 15.994c-3.174-1.089-5.327-.645-8.377.519.955 1.514 1.9 2.58 3.32 3.659l3.021 1.066-1.98 5.068-3.283 8.125-12.204 31.032c-1.909 4.838-3.472 9.949-5.79 14.607-.241.486-.576.774-1.005 1.089l-.15.112-.298.203V149.964Z"/>
  <path fill="#70BDBD" d="M3.754 151.71c2.181.933 4.09 2.066 6.125 3.282-.537.689-2.047 1.129-2.873 1.366-.162.046-.873.168-.973.259-.55.502-1.112 1.684-1.543 2.338-.15-.763-.286-1.514-.322-2.291-.017-.368.075-1.181-.041-1.498-.058-.158-.358-.44-.475-.583-.086-.945-.148-1.951.102-2.873Z"/>
  <path fill="#51B0AF" d="M9.75 163.805c.588.668 1.238.847 2.093.909.98.071 1.987-.067 2.94.192l-1.064 2.091c-.615 1.176-2.63 2.506-3.85 2.994-.312-.271-.48-.347-.888-.416-1.169 1.569-2.811 3.5-4.54 4.429l-.352-.13c-.372-.581-.513-1.145-.627-1.815-.136-.795-.152-1.448.333-2.117 1.138.219 2.356-.106 3.437-.478.574-.196.968-.426 1.227-.972-.114-.154-.18-.23-.267-.415-.194-.416-.172-.656.031-1.042.527-.088.898-.152 1.34-.461-.054-.269-.104-.524-.201-.782l-.067-.162c.208-.61.35-1.189.454-1.825Z"/>
  <path fill="#2F6768" d="M19.447 256.742c-.553-.495-.932-1.162-1.463-1.688-.884-.877-1.908-1.595-2.918-2.319l1.207-2.117c-.484-1.589-1.268-2.901-2.021-4.372.665.564 1.496 1.727 2.32 1.969.271.08.358-.041.59-.161a3.53 3.53 0 0 0 .162-1.129c-.011-.469.048-1.372-.1-1.796-.082-.235-.526-.669-.69-.873a36.209 36.209 0 0 0-3.155-3.408l.101-.436c.436-.001.732.031 1.093-.255.079-.911-1.518-2.736-2.052-3.608-.477-.779-.848-1.636-1.212-2.472.886.299 1.698 1.419 2.606 1.889l.4-.305c.707 1.952 1.48 4.664 2.607 6.39.482.739 1.402 1.406 2.075 1.993l.346.162c.858-.472 1.732-.942 2.346-1.723l3.021 1.066-1.98 5.068-3.283 8.125Z"/>
  <path fill="#3B8081" d="m21.689 242.483 3.021 1.066-1.98 5.068c-.716-.407-1.267-.74-1.54-1.55l.451-.693.138-.196c-.088-.107-.131-.282-.264-.319-.617-.168-1.933.283-2.763.164-.533-.371-1.11-.615-1.351-1.227.49-.464 1-.353 1.596-.752l.346.162c.858-.472 1.732-.942 2.346-1.723Z"/>
  <path fill="#51B0AF" d="M14.316 235.661c-.21-.714-.877-2.004-.744-2.71 1.742-.295.676-1.285 1.725-2.014 1.02.829 1.78 2.783 2.473 3.927l1.885-4.015.07-.197c.52-.029.848.589 1.203.962 1.193 1.251 2.87 2.027 4.365 2.867.61-.83 1.356-1.548 2.073-2.285l-.53-.825c-.58-.893-1.877-1.73-2.227-2.566.22-.183.421-.314.679-.434l.273-.126.031-.427c-1.424-1.808-3.065-2.561-5.212-3.25-1.09-.349-2.27-.653-3.15-1.423-.52-.454-.926-1.052-1.001-1.744l.253-.19c.638.665 1.155 1.067 2.072 1.107.199-.133.712-.519.957-.44.632.204 1.683 1.631 2.32 2.08.954.674 4.115 1.618 5.222 1.6.28-.006 1.945-.139 2.093-.276.07-.064.225-1.061.26-1.218.048-.222.13-.756.277-.928.315-.371 1.628-.543 2.178-1.093l1.255.268-6.37 15.994c-3.174-1.089-5.327-.645-8.377.519.955 1.514 1.9 2.58 3.32 3.659-.614.781-1.488 1.251-2.346 1.723l-.346-.162c-.673-.587-1.593-1.254-2.075-1.993-1.126-1.726-1.9-4.438-2.606-6.39Z"/>
  <path fill="#70BDBD" d="M10.07 155.266c1.806.484 3.5 1.705 5.129 2.618l9.298 5.293 5.919 3.073 20.248 11.23-17.548 44.831-1.255-.268-3.354-2.275c1.39-.122 2.674-.293 3.973-.843.565-.239 1.184-.588 1.426-1.176-.746-1.336-2.612-.603-3.767-1.227l-.116-.451c.453-.964 2.348-1.659 3.268-2.26.68-.443 1.772-1.154 1.955-1.984l-.407-.487c-.158-1.178 1.824-2.126 2.01-3.265l-.332-.125c-2.113.227-4.114 2.085-5.83 3.28-.708-.716-1.398-1.189-2.266-1.683.49-.557 1.523-1.461 1.595-2.163-.246-.223-.435-.387-.577-.691l1.778-3.011-.914.419c-1.315.606-2.243 1.523-3.427 2.304l-5.001 3.159-3.617 2.736c-.716.519-1.831.892-2.72.737-1.78-.309-3.77-.23-5.582-.286 2.556-.802 4.867-1.164 6.772-3.195l-.049-.602c-.175-.148-.37-.335-.592-.416-1.151-.421-2.957.506-4.095.865-.463-.727-.923-1.408-1.49-2.058l-.145-.164c.945.178 2.212.485 3.164.352.525-.073.943-.288 1.489-.312 1.097-.047 2.295.139 3.329-.279l.117-.31c-.964-.856-1.973-1.144-3.03-1.795-.737-.454-2.205-2.085-2.672-2.81.643.149 1.578.477 2.213.254 1.354-.477 2.12 1.024 3.489 1.085.882-.482 1.372-.661 2.378-.441l.188.044c.177-.11.488-.247.628-.389.24-.246.364-.875.692-1.053.062-.034.585-.001.673-.003.803-.015 1.172-.032 1.829-.467l.051-.484c-.758-1.244-2.323-1.743-3.6-2.284 1.049.031 3.429.417 4.267-.075.062-.459.15-.843.312-1.277.786-.164 1.618-.081 2.39-.272.782-.195 1.295-.876 1.701-1.521l-.16-.363c-1.144-.076-2.223.018-3.36.145l-2.263-2.434c1.062.204 2.395.472 3.453.135.475-.151.567-.215.793-.642l-.765-1.086c.07-.878 1.045-.493 1.649-.918.2-.141.42-.471.59-.661l-.174-.395c-.543-.117-.923-.283-1.403-.56-.38-.901-.183-2.08-.126-3.046-.965 1.366-2.38 3.465-4.01 4.028-1.252.431-2.094 1.27-3.131 2.054-3.233 2.44-6.94 1.789-10.736 1.531l1.09-1.056c.746-.695 1.326-1.254 2.42-1.2 1.003.049 1.999-.191 2.847-.745.084-.792-.358-1.119-.26-1.846l3.837-1.134c1.117-.277 2.51.007 3.448-.691l.035-.987c.431-.755 1.22-1.054 1.966-1.445-.614-.314-1.771-.747-2.181-1.265.543-.769 1.157-1.532 1.482-2.423l-.234-.366c-1.16.221-2.073 1.4-3.155 1.909-.907.426-2.07.629-3.046.878.776-.799 1.807-1.297 2.336-2.322.244-.471.377-.785.214-1.281-.968-.121-3.681.91-4.332 1.67-.671.784-.836 2.464-1.886 2.85l-.513-.673c-.639-.108-1.346.286-1.937.546l-4.082 1.804 2.823-3.008c-.802-.356-1.6-.657-2.258-1.252l.045-.518c.37-.427.935-1.185 1.58-1.122.595.058 1.487.478 2.072.31.516-.147.654-1.154 1-1.423.41-.321 1.66-.524 2.214-.758 1.169-.495 1.368-1.33 1.807-2.437-1.093-.444-2.334-.021-3.263-.829.45-1.039 3.282-1.259 4.216-2.665-.486-.671-1.043-.118-1.644-.691.132-.571.038-1.254.308-1.761.643-.096 1.314-.276 1.839-.672.608-.459.618-.508.705-1.219-.516-.579-1.585-.558-2.35-.69.47-.655 1.06-1.399 1.386-2.136a2.22 2.22 0 0 0 .06-1.673c-.637.036-.856 1.436-1.54 1.752-.393.181-1.338-.185-1.777-.025-.242.087-.589.412-.811.568-.953-.259-1.96-.121-2.94-.192-.855-.062-1.505-.241-2.094-.909-.138-.658.165-1.197.369-1.828-.458-.639-1.747-.872-2.518-1.02-.31.189-.52.299-.88.351-.393-.311-.4-.301-.502-.789 2.26-1.279 3.08-2.851 3.852-5.253Z"/>
  <path fill="url(#a)" d="m86.424 223.194-26.316-44.558c5.267.633 10.932.129 16.245.117l28.871-.01 8.864-.368 35.113.178 43.661-.202 41.687.08c.664.574 2.577.044 3.524.425-.078.165-.11.361-.233.494-.615.667-2.285 1.225-3.115 1.688l-6.354 3.55c-1.907 1.08-3.779 2.218-5.849 2.965l-.283.102c-1.564-.43-3.169-1.309-4.698-1.913-1.119-.391-2.365-.684-3.44-1.158-.654-.29-1.671-.242-2.39-.273-2.685-.12-5.717.174-8.344.765-1.309.293-2.664.9-3.986 1.261-2.864.783-5.765 1.543-8.515 2.68l-11.936 5.309c-.981.384-2.178 1.019-3.227 1.056l.474.417c-.02.995-.608 2.057-1.01 2.962-1.968 4.432-4.68 8.279-7.972 11.811-.776.833-1.574 1.868-2.44 2.595l-.164.112-.226-.446c-.786 1.309-2.062 2.373-3.201 3.374-.387-.284-.484-.595-.651-1.025l-.366-.032-2.58 4.889c-.29.355-.627.747-1.034.969-.916.498-2.878.388-3.856.124-.16-.52-.22-1.044-.292-1.582-.48-1.782-1.338-3.46-2.311-5.019-.28.897-.747 1.714-1.181 2.544l-.189-.141c-.386-.319-.537-.871-.764-1.304-.489-.933-1.035-2.048-1.689-2.866-1.242 2.426-2.197 4.873-3.88 7.058l.163.419-.274.546-2.089-3.627-3.323 6.512c.668.976 1.241 1.299 1.522 2.566l-.097.109c-.722.904-.465 2.978-.432 4.121-1.343-.012-2.384.473-3.585 1.002-.037.016-.582.248-.588.262-.022.047.203.882.224.979.227 1.011.82 3.062.356 4.053-.251.539-1.435.836-1.98 1.064-.384.911-.735 1.757-1.6 2.302-.493.114-.912.163-1.406.012-1.859-.575-3.755-1.733-5.537-2.557l-12.907-5.98c.708-.476 1.489-.924 2.104-1.517l-.215-.199-.827.391-1.764.903-4.929-2.521c-.876.477-2.063.481-3.048.613-2.192.293-4.325 1.007-6.056 2.432-.676.558-1.167 1.293-1.782 1.909-.395.396-.93.588-1.28.999-.589-.659-1.06-1.866-1.526-2.655l-5.07-8.766Z"/>
  <path fill="#469797" d="m112.399 207.873 2.446-.118c-.677 2.334-3.017 4.649-4.616 6.408-.269.271-.6.438-.93.625-.247-.319 1.211-1.648 1.533-2.07 1.073-1.408 1.406-3.12 1.567-4.845Zm31.867-8.287.609-.038.102.236c-.791 1.788-2.798 3.528-3.94 5.166-2.326 3.337-3.947 6.821-6.716 9.889l-.372.14c-.086-.681 1.2-1.736 1.634-2.368 2.53-3.683 4.052-7.691 4.379-12.177 1.484-.186 2.866-.412 4.304-.848Zm20.099 13.247c1.004-1.345 1.692-2.901 2.533-4.349 1.673-2.886 4.184-5.968 4.807-9.299l.053-.29c.248-1.324.19-2.885-.025-4.214l-.038-.226 4.008.927.474.417c-.02.995-.608 2.057-1.01 2.962-1.968 4.432-4.68 8.279-7.972 11.811-.776.833-1.574 1.868-2.44 2.595l-.164.112-.226-.446Z"/>
  <path fill="#3B8081" d="M86.424 223.194c1.728-.118 3.353.175 5.045.48 4.748.854 9.503 2.649 13.718 4.988-.876.477-2.063.481-3.048.613-2.192.293-4.325 1.007-6.056 2.432-.676.558-1.167 1.293-1.782 1.909-.395.396-.93.588-1.28.999-.589-.659-1.06-1.866-1.526-2.655l-5.07-8.766Z"/>
  <path fill="#224B4C" d="m238.87 212.46.361.416 14.359-1.278c1.49-3.128 3.295-6.472 3.78-9.939l.463-3.342.26-.113c.284.675.129 1.64.096 2.368-.18 4.026-1.151 7.619-2.266 11.451l3.016.384c2.165.379 4.306.907 6.423 1.502 1.377.387 3.04 1.101 4.444 1.171l6.86 16.645c.585 1.471 1.157 3.565 2.032 4.848l.017.439c.549 1.168 1.019 2.277 1.347 3.527l15.577 39.24 2.766 7.163c-.781.56-3.405.209-4.43.186l-4.806.028c-2.084.09-4.065.383-6.163.162-7.571.318-15.262 1.343-22.309 4.293l-4.5 1.942-5.174 2.823-.907.486-7.658 4.161-.828.43-10.925 4.79c-1.496.677-3.105 1.15-4.684 1.591-2.842.658-5.687 1.307-8.584 1.677-5.603.716-11.205.962-16.753 2.124l-16.326 4.07-5.593 1.417c-.852.2-1.785.51-2.659.443l9.459-15.868 1.951-3.445 10.118-17.022 1.471-2.402 1.861-2.993c.86-1.875 2.142-3.71 3.24-5.461l2.489-4.19 26.645-44.791 5.53-8.933Z"/>
  <path fill="#35787A" d="m280.737 255.533 1.524-1.901.352.152c.185.47.329.765.189 1.278l-.185.093c-.52.266-.891.499-1.305.91l-.575-.532Z"/>
  <path fill="#3B8081" d="m237.973 282.197-.814-.678.035-.397 2.795-1.453.131.474c-.678.65-1.387 1.532-2.147 2.054Z"/>
  <path fill="#2F6768" d="m249.404 260.96.264-.118c1.588-.711 2.533-1.767 3.721-3.006-.402 1.958-.823 2.889-2.157 4.364-.527-.496-1.214-.857-1.828-1.24Z"/>
  <path fill="#3B8081" d="m246.909 260.588 2.495.372c.614.383 1.301.744 1.828 1.24l-1.558 1.341c-.551-.664-1.306-1.367-2.041-1.821-.474-.292-1.03-.472-1.415-.881l.691-.251Z"/>
  <path fill="#2F6768" d="m265.747 251.508.276-.072c1.525-.315 4.615 2.019 5.812 2.886l.075.543c-.168.036-.225.06-.418.039-1.669-.177-4.653-2.18-5.745-3.396Zm-33.005 23.691c.508-.022.798.352 1.177.674.778.658 2.862 2.167 2.944 3.077l-.493.524c-.456.22-.491.237-.987.157l-2.609-3.381c-.277-.477-.186-.549-.032-1.051Zm46.466 5.292c.428-.083.986-.04 1.375.179.491.276.728.562.819 1.092l-.18.187c-.702.661-2.935.61-3.877.612-1.161-.179-2.297-.711-3.402-1.109l5.265-.961Z"/>
  <path fill="#469797" d="M263.918 227.089c-1.694-.601-4.048-1.218-5.53-2.149-.561-.72-.563-1.928-.678-2.825l1.556 1.327c.851.102 1.669.583 2.511.561.654-.018 1.288.17 1.92.318.138.832.668 2.047.221 2.768Z"/>
  <path fill="#3B8081" d="M269.359 243.865c.453-.288.867-.629 1.422-.648.108.254.18.314.13.59-.097.527-.152.853.021 1.363l.375.169 1.283-.598.321.188a6.794 6.794 0 0 1-.49 1.596l-.192-.012c-.625-.052-2.091-.764-2.469-.716-.365.048-1.278.731-1.646.941-.245.962.629 1.321-.459 2.15l-1.205.154c.037-1.04.272-2.866-.078-3.817l-.789-.344.578.027.187.01c1.076.035 2.215-.325 3.011-1.053Z"/>
  <path fill="#469797" d="M266.45 249.042c-3.117-1.027-4.769-3.595-6.747-6.039.919.192 1.822.696 2.712 1.014 1.022.366 2.115.6 3.168.864l.789.344c.35.951.115 2.777.078 3.817Z"/>
  <path fill="#2F6768" d="M242.458 301.023c-1.232-1.753-3.937-2.984-5.565-4.49 1.835.271 3.793 1.397 5.569 2 .588.2 1.352.526 1.972.352.648-.18 1.017-.615 1.325-1.18l-.169-.353-.833-.182-.155-.33c.179-.093.226-.129.452-.171.91-.172 2.112.005 3.066-.057.342-.022 1.052-.179 1.364-.106.176.041.463.26.632.356l-7.658 4.161Z"/>
  <path fill="#469797" d="m264.583 232.778-3.457-.538c-.595-.703-1.18-1.4-1.62-2.214-.35-.647-.45-1.022-.241-1.711 1.185-.677 1.59.322 2.74.369.769.032 1.949-.462 2.705-.676l-.127 4.77Z"/>
  <path fill="#2F6768" d="m230.705 306.243-.23-.212c-.223-1.062-.066-2.327-.034-3.416l2.573.885.221-.227c1.571-1.504 3.013-1.565 5.064-1.511l-2.471-2.701c1.286.378 2.405 1.03 3.627 1.556.741.317 1.442.438 2.175.836l-10.925 4.79Z"/>
  <path fill="#469797" d="M265.854 243.617c-1.431-.462-3.195-.817-4.352-1.825-.947-.825-1.708-2.289-2.399-3.345.994.322 1.736.956 2.827.882.37-.641-.244-.731-.071-1.443l1.847-.49.31.217.181.051a6.038 6.038 0 0 0 1.7.222c.391 1.758.268 3.975-.043 5.731Z"/>
  <path fill="#2F6768" d="M239.989 279.669c.299.204.433.351.615.663.993.077 2.463-.793 3.264-.48 1.768.688 2.984.597 4.746-.187.529-.236 1.053-.534 1.624-.649-2.475 2.34-4.672 4.151-7.895 5.348-1.363-.554-2.794-1.043-4-1.899l-.234-.164-.136-.104c.76-.522 1.469-1.404 2.147-2.054l-.131-.474Zm38.726-42.657c.549 1.168 1.019 2.277 1.347 3.527-1.144-.167-4.219-.799-5.073-.185l.089.241c.138.404.095.821.073 1.24l-.528.592c.097.267.065.277.306.457.655.488.987.884 1.374 1.616-.016.558.012.658-.425 1.024-.725.608-1.887.819-2.795.926l-.662.075c.24-.534.381-1.021.49-1.596l-.321-.188-1.283.598-.375-.169c-.173-.51-.118-.836-.021-1.363.05-.276-.022-.336-.13-.59-.555.019-.969.36-1.422.648l-.118-.488c1.503-.638 2.325-1.627 3.526-2.688 1.46-1.29 3.738-2.722 5.695-2.936l.192-.014.061-.727Zm-27.692 59.364c-.941-.948-2.239-1.128-3.488-1.47.727-.787 1.623-1.242 2.281-2.136l-.349-1.579c.494-1.133 2.77-.955 3.683-1.853.843-.83.796-2.302 1.773-3.129 1.85 1.3.107 5.42 1.181 7.204l.093.14-5.174 2.823ZM222.1 258.232l.533-.173c1.869-.568 3.956-.998 5.907-1.089-2.373 1.392-4.91 2.644-7.076 4.341l3.284.539c.949.226 2.098-.514 2.898-1.005.543-.332.945-.706 1.6-.787-.489.845-.994 1.821-1.649 2.547-1.045 1.158-2.514 1.989-3.682 3.027-.542.481-1.77 1.954-2.403 2.139-1.126.331-3.358.066-4.583.004.54-.331 2.081-.191 2.759-.2.072-.247.133-.486.247-.718.197-.403.224-.584.194-1.035-.303-.286-.52-.481-.658-.889l.317-.357c.499-.146.653-.22.974-.63l-.365-.604-.131-.185c.183-.519.416-.992.665-1.481-.049-.438-.129-.961.059-1.378.341-.75 1.099-1.186 1.11-2.066Zm71.875 28.896c-1.4-.295-3.001-.174-4.433-.194l.261-6.306c1.519-1.722 3.81.093 5.641-.755l.195-.094 2.766 7.163c-.781.56-3.405.209-4.43.186Zm-13.238-31.595.575.532c-2.289 4.003-5.928 6.54-10.422 7.56-1.064.241-2.555.289-3.48.859-.331.205-.26.207-.349.548.099.126.158.299.297.379.139.08.849.025 1.072.033 1.05.036 2.061.138 3.1.302l-.714.231c-1.142.337-2.976.716-4.05.039-.963-.605-3.782-4.533-4.068-5.721-.152-.629-.257-1.129.081-1.679l.353.197c.246.627.554 1.173.907 1.745.636.274 1.279.075 1.938-.038l.181.089.272.127c.492.237.78.355 1.337.313.688-.051 1.804.013 2.355-.417.149-.685 1.106-2.117 1.7-2.437.123-.067.828-.012.997-.015 3.503-.063 5.224-.247 7.918-2.647Zm-31.063 8.008c-1.252 1.159-2.966 1.833-4.475 2.586-1.085.541-2.106 1.208-3.132 1.854l-3.668-1.625c.643-.638 2.057-1.74 2.22-2.607l-.569-.511c-.145-.661.103-.875.409-1.464l-.242-.273-5.102.322-1.185-2.696c.973.288 1.785.847 2.833.723l.11-.346c-.215-.288-.337-.555-.469-.888l.284-.395c1.112-.259 2.933-.846 4.063-.54.55.149.562.416.838.836.301.456.487.392 1 .494.366.647-.143.699.096 1.333l1.363-.025 2.861.269-.691.251c.385.409.941.589 1.415.881.735.454 1.49 1.157 2.041 1.821Zm11.023 28.07-.408-.283-.275-1.996c-.29-2.457-.305-3.447 1.251-5.415l4.931 2.946c1.437-.181 2.936-.437 4.383-.457 1.814-.024 5.853 1.248 7.271.106.32-.257.233-.366.271-.751-.551-.562-1.595-.435-2.324-.668-.397-.126-.411-.164-.591-.516.896-.571 3.234.264 4.401.005.884-.196 2.007-1.85 2.82-2.369.667-.427 1.465-.639 2.216-.872.183 1.203.174 2.419.243 3.631.041.727.196 1.492.04 2.209l-1.92.137c-7.571.318-15.262 1.343-22.309 4.293Z"/>
  <path fill="#3B8081" d="M258.939 212.407c2.165.379 4.306.907 6.423 1.502 1.377.387 3.04 1.101 4.444 1.171l6.86 16.645c.585 1.471 1.157 3.565 2.032 4.848l.017.439-.061.727-.192.014c-1.957.214-4.235 1.646-5.695 2.936-1.201 1.061-2.023 2.05-3.526 2.688a10.32 10.32 0 0 1-3.387.24c.311-1.756.434-3.973.043-5.731a6.038 6.038 0 0 1-1.7-.222l-.181-.051 3.42.275c.449-.742.959-1.338 1.54-1.976l-2.457-1.704 3.584-.64c-1.57-.557-3.842-.581-5.52-.79l.127-4.77-.099-.601-.693-.318c.447-.721-.083-1.936-.221-2.768l1.391.22.296-.225c-.708-.78-1.763-1.27-2.671-1.786l-.017-.14-.033-.231c-.15-1.137-.708-2.256-1.116-3.327l-2.608-6.425Z"/>
  <path fill="#224B4C" d="M278.698 236.573c-.866.079-1.62.149-2.471-.087l-.282-.083c-.772-.218-1.417-.447-2.089-.905-1.573-1.069-4.122-2.704-4.489-4.62l.36-.23 2.252.691c1.132.339 3.685.928 4.687.386.585 1.471 1.157 3.565 2.032 4.848Z"/>
  <path fill="#3B8081" d="M233.34 221.393c.379.447.798.916.977 1.485.49 1.557.662 3.371.978 4.984.53 2.709 1.409 5.389 2.66 7.853a33.291 33.291 0 0 0 3.952 5.996c1.083 1.305 3.188 2.38 3.797 3.925l4.213 4.672c-1.082 1.076-2.537 1.487-3.975 1.891-2.415.678-4.698 1.175-7.22 1.194-.585.005-1.579-.015-2.044-.404l-2.757-2.631c.671-.03 2.038.088 2.515-.331l-.077-.248c-.107-.372-.069-.719-.031-1.097.339-.325.643-.517 1.062-.728l-.121-.394-.201-.071c-.728-.263-1.334-.59-1.988-1.001l-.127-.375c.342-.262.709-.24 1.12-.265l.151-.361c-.22-.229-1.265-1.111-1.24-1.346.04-.377.29-.707.484-1.023-.224-1.295-1.977-2.385-2.579-3.61-.306-.621-.405-1.411-.527-2.089l-.118-.077c-.491.71-.99 1.555-1.61 2.158-.283.275-.634.498-.974.697-.503.294-1.113.441-1.581.783-.406.297-.728.794-1.086 1.152-.953.954-2.077 2.015-3.206 2.751 1.191 1.211 2.287 2.015 3.824 2.74l-.996 3.341c-2.007.065-4.678-.184-6.588.287.005.779.165 1.584-.238 2.258l-2.172.347-.272.416c.127.568.219.828.706 1.185l.948.498.751.376c-.881.372-1.796.678-2.468 1.386l-.028.43c.402.383.787.531 1.35.547 1.092.03 2.426-.244 3.496-.462-.011.88-.769 1.316-1.11 2.066-.188.417-.108.94-.059 1.378-.249.489-.482.962-.665 1.481l.131.185.365.604c-.321.41-.475.484-.974.63l-.317.357c.138.408.355.603.658.889.03.451.003.632-.194 1.035-.114.232-.175.471-.247.718-.678.009-2.219-.131-2.759.2-1.053.658-1.98 1.732-3.104 2.205l-.16-.101c-.892-.548-1.853-.935-2.815-1.342l2.227 1.987c-.793.276-1.649.382-2.083 1.122l.161.395c.832.273 1.322.27 1.75 1.116l-.078.517c-.218 1.283-1.276 2.37-2.306 3.11l-.462-.137-.535-1.123-.413-.159c-2.319-.938-.485-4.068-1.195-5.67-.218-.493-.327-.979-.446-1.505-.176-.78-.575-1.273-.775-2.006l26.645-44.791Z"/>
  <path fill="#2F6768" d="m236.678 252.989.671-.054c.58-.708.974-.964 1.853-1.213l.248-.068.161-.343-.811-.592c.124-.483.518-1.034.587-1.481.087-.565-.264-.651.046-1.305.343-.723 1.061-1.409 1.547-2.052.614-.813.946-1.582 1.224-2.561l.085-.301h.395l-.009.275c.01.886.725 1.759 1.321 2.346.733.251.939.166 1.708-.004l4.213 4.672c-1.082 1.076-2.537 1.487-3.975 1.891-2.415.678-4.698 1.175-7.22 1.194-.585.005-1.579-.015-2.044-.404Z"/>
  <path fill="#469797" d="m238.87 212.46.361.416 14.359-1.278c1.49-3.128 3.295-6.472 3.78-9.939l.463-3.342.26-.113c.284.675.129 1.64.096 2.368-.18 4.026-1.151 7.619-2.266 11.451l3.016.384 2.608 6.425c.408 1.071.966 2.19 1.116 3.327l.033.231.017.14c-1.866-.924-3.784-2.034-5.327-3.444-.213-1.692-.384-3.357-.867-4.998-.259 1.192-.462 2.378-.535 3.597-.096 1.56.031 3.136-.085 4.693-.011.159-.02.749-.083.831-.005.007-.365.24-.416.272-.767.492-3.5 1.528-3.728 2.165.644.505 1.524.425 2.317.327l1.231-.219.362.287c-.025 1.031-.483 1.5-1.194 2.183l-3.476 2.97 6.207-1.239c-2.256 2.355-4.448 4.186-7.525 5.419-2.254.904-4.314 1.438-6.301 2.907.118.207.116.324.365.393 1.115.307 2.855-.25 3.946-.549.527-.144 1.012-.384 1.547-.239-.262.615-1.049.551-1.136 1.087.637.11 2.234-.72 2.605-.126.198.319.19.748.221 1.114l.332.218c1.108-.554 1.389-2.301 2.566-2.772.453.228.546.39.723.874.191.524.115.74-.162 1.212-.972 1.65-3.162 2.563-4.523 3.897l3.231-.051c.002.739.211 2.232.008 2.884-.074.238-.458.679-.609.902-.712 1.045-1.392 2.052-2.278 2.963l-.212.22-4.213-4.672c-.609-1.545-2.714-2.62-3.797-3.925a33.291 33.291 0 0 1-3.952-5.996c-1.251-2.464-2.13-5.144-2.66-7.853-.316-1.613-.488-3.427-.978-4.984-.179-.569-.598-1.038-.977-1.485l5.53-8.933Z"/>
  <path fill="#2F6768" d="M206.695 266.184c.2.733.599 1.226.775 2.006.119.526.228 1.012.446 1.505.71 1.602-1.124 4.732 1.195 5.67l.413.159.535 1.123.462.137c1.03-.74 2.088-1.827 2.306-3.11l.078-.517.173.913.862.43c.637-.118 1.185-.273 1.812-.025.527.617.937 1.464 1.668 1.832.978-.225 1.488-1.052 2.403-1.306.207.172.438.338.623.531.31-.035.93-.027 1.203-.136.608-.24 1.082-1.575 1.624-1.835.231-.111.426.286.641.426 1.05.681 2.228 1.064 3.338 1.641l.307.459c-.184.585-.403.571-.938.855-3.2 1.7-5.612 4.378-9.003 5.824-2.989 1.273-6.32 1.355-9.405 2.327.331.932.719 1.834.675 2.84-1.029 1.497-4.405 1.025-5.535 2.369.363.119.197.13.466.046l5.282-1.153-2.563 1.798c.101.652.397.925.914 1.319.814.619 1.668 1.007 2.343 1.805.384.044.648.061 1.024-.029.824-.196 3.051.886 4.011 1.121-.133.958-.233 1.93-.503 2.862l-3.433.837c1.713.956 3.713 2.289 5.628 2.713 2.679.592 6.308-1.091 8.794.059.502 1.955.321 4.146.705 6.154-2.842.658-5.687 1.307-8.584 1.677-5.603.716-11.205.962-16.753 2.124l-16.326 4.07-5.593 1.417c-.852.2-1.785.51-2.659.443l9.459-15.868 1.951-3.445 10.118-17.022 1.471-2.402 1.861-2.993c.86-1.875 2.142-3.71 3.24-5.461l2.489-4.19Z"/>
  <path fill="#3B8081" d="M187.516 298.252c.881.625 1.481 1.591 2.113 2.454-.983.693-2.438.977-3.59 1.271l-.474-.28 1.951-3.445Zm4.845.045.128-.002c.695.091 1.987 1.563 2.414 2.118.503.654 1.364.331 1.817 1.102l-.575.533c-.743.418-1.372.595-2.214.428a5.408 5.408 0 0 1-.805-1.093c-.507-.895-1.06-2.045-.765-3.086ZM213.94 274.5c.637-.118 1.185-.273 1.812-.025.527.617.937 1.464 1.668 1.832.978-.225 1.488-1.052 2.403-1.306.207.172.438.338.623.531.437.087.77.161 1.156.4-.097.564-.331.848-.758 1.242-.386.354-1.143.324-1.637.321-.887-.005-4.415-.528-4.968-1.079-.264-.742-.521-1.124-.299-1.916Zm-9.734-4.126.485.291c.207 1.274.824 3.487.491 4.634-.727.689-1.865.989-2.862.932-.541-.03-.94-.05-1.354-.396.86-1.875 2.142-3.71 3.24-5.461Zm11.809 7.787.714-.051c.407.648-.059.46-.098 1.036-.033.478.249 1.135.404 1.582-.289.601-.319.565-.898.813l-.612-.265c-.408-.11-.625-.022-.984.153-1.496.727-2.577.898-4.208.734l-3.099-.733c1.039-.281 2.483.034 3.377-.272.503-.172 1.151-.683 1.625-.965 1.236-.737 2.441-1.49 3.779-2.032Zm-16.91.667c1.125.565 1.451 1.667 2.34 2.467.538.484 1.285.547 1.833 1.012-.245.371-.558.505-.94.703-.578.846-.899 1.805-1.383 2.702-1.345-1.347-2.048-2.809-3.184-4.278l-.137-.204 1.471-2.402Z"/>
  <path fill="#0C1819" d="m38.241 241.615 4.767 1.349c.496-2.025.86-4.301 2.783-5.486 1.673-1.031 3.701-1.239 5.586-.745 1.102.289 2.112 1.084 2.915 1.865.23 1.235.71 2.683.76 3.928.013.33-.166.674-.124.987.151 1.129.774 1.58.45 2.862.573.519 1.693.783 2.427 1.04 3.096 1.085 6.277 1.875 9.45 2.696.666-1.369 1.1-2.487.88-4.031-.094-.661-.244-1.13.062-1.742 1.147-.419 2.642-.338 3.75.192l1.64.954-.13.171c-1.47 1.957-1.675 3.203-1.586 5.666 1.935 1.314 3.856 2.717 6.053 3.565 1.177.455 2.468.746 3.706.977 1.346.251 3.734.284 4.476 1.569.076 1.399-.342 2.117-1.27 3.144l-.126.136c.1.557.22.754.578 1.184.833 1 .652 2.951.545 4.222-.028.325-.12.617-.213.929-.111.377-.127.753-.144 1.144.313.521.653.828 1.275.985 1.686.425 3.175-2.667 5.004-2.071.409.928-.51 1.744-.302 2.622.11.464.274.954-.004 1.375-.888 1.346-2.719 2.693-3.95 3.752.637.667 1.22 1.815 1.852 2.328 1.763-.563 2.871-.397 4.673-.239l.93-1.941.356-.063c.276 1.13-.988 1.985-.104 2.949.602.685 1.144 1.409 1.968 1.831 1.357 1.065 2.785 2.096 3.792 3.517.539.76 1.014 1.541 1.446 2.365.065.124.448.983.524 1.024.076.041.706-.026.835-.029.029.297.007.487-.066.769-.11.43-.036.794.042 1.223.373.522.898.828 1.422 1.182.64.867 1.287 1.734 2.221 2.303l.604-.012c3.018-.091 4.695.246 7.112 2.165.735.582 1.329 1.081 2.25 1.351l4.603 1.748c3.169 4.338 5.547 8.937 8.318 13.51 2.21 3.646 4.857 7.274 6.5 11.226l11.867 19.871L1.8 319.85l4.683-13.039-.466-.357c-1.063-.047-1.78.351-2.76.656l-.488-.323c-.246-.506-.346-.61-.27-1.184.503-.678 1.022-1.496 1.752-1.947.522-.324.95-.352 1.528-.182.638.189.998.674 1.283 1.245l.067.142c.913-.571 10.664-26.504 11.905-29.479l1.81-4.788 2.084-5.143 2.78-7.278.523-1.3.459-.989 1.967-5.069.676-1.759 1.359-3.624-5.982-1.883-3.021-1.066c-1.42-1.079-2.365-2.145-3.32-3.659 3.05-1.164 5.203-1.608 8.378-.519 1.43.285 2.824.691 4.219 1.114.614.187 1.378.581 2.011.543.868.484 1.846.672 2.803.909l2.461.744Z"/>
  <path fill="#35787A" d="M61.843 257.407c-1.813-1.678-3.692-2.783-5.796-4.051l7.915 2.31c-.196.332-.248.525-.595.716-.542.298-.982.731-1.524 1.025Z"/>
  <path fill="#2F6768" d="m63.962 255.666 1.822.643-.61 4.463-3.331-3.365c.542-.294.982-.727 1.524-1.025.347-.191.399-.384.595-.716Z"/>
  <path fill="#224B4C" d="m40.49 268.29.5-.034c1.056 1.403.926 2.588 1.13 4.226.113.895.317 1.815.184 2.717-.14.952-.573 2.16-1.348 2.764l-.206-.139c-1.727-1.411-2.03-5.394-2.094-7.391.56-.801 1.127-1.47 1.834-2.143Zm7.75 17.57c.136.014.297.035.425.09.825.348 1.868 1.655 2.438 2.352 4.186 5.125 1.37 7.453 1.203 12.893-.06 1.963.635 4.286 1.355 6.107l.078.19-5.984-.161-5.46-.196c-.694-.887-1.238-1.803-1.781-2.788.241-.687.89-1.325 1.328-1.904 1.016-1.34 2.082-2.751 2.732-4.313.44-1.056.129-2.418.316-3.561.475-2.905 1.92-6.151 3.35-8.709Z"/>
  <path fill="#2F6768" d="M30.69 245.432c.431.122 1.99.414 2.268.662l1.417.491c2.34.706 4.858 1.773 7.243 2.224l-3.593 3.45c-.96.961-1.993 1.868-2.502 3.163-.6 1.525-.701 3.256-.888 4.869-.182 1.574-.268 3.163-.727 4.686-1.209-.225-2.309.174-3.495-.024l-1.38-.182c-.685.097-1.189-.047-1.843-.226l-.861.412c-.702.361-2.698.762-3.402.494l2.78-7.278.523-1.3.459-.989 1.967-5.069.676-1.759 1.359-3.624Z"/>
  <path fill="#35787A" d="m32.96 246.095 1.416.49c-.305.461-.468.928-1.018 1.073-.464-.309-.564-.569-.753-1.085l.354-.478Z"/>
  <path fill="#469797" d="M26.23 256.873c.862-.114 2.266-.319 3.013.208l.142.119c.778.51 1.5 1.012 2.196 1.633-1.95.08-3.73.036-5.672-.186l-.2-.474.522-1.3Z"/>
  <path fill="#3B8081" d="M29.333 249.056c1.186.631 2.524 1.778 3.84 2.031.98.189 1.85.048 2.823.361-2.31.655-4.17 1.317-6.409.076-.345-.192-.716-.365-.93-.709l.676-1.759Z"/>
  <path fill="#469797" d="M27.19 264.545c-.376-.173-.591-.285-.876-.599.235-.557.548-.852 1.13-1.086.894-.359 1.392-.462 2.268-.063.768.35.835.313 1.635.019l2.711-1.142c-1.167 1.488-3.165 2.671-5.025 3.097-.685.097-1.189-.047-1.843-.226Z"/>
  <path fill="#3B8081" d="m26.69 255.884.134.063c.49.216.87.284 1.402.302l.298-.379-.17-1.301.365-.405c1.216-.055 2.784.197 3.75.97l.185.145.446.376-.015.592c-.822.575-2.197.658-3.184.718-.231.015-.345.086-.516.235l-.142-.119c-.747-.527-2.151-.322-3.012-.208l.459-.989Z"/>
  <path fill="#2F6768" d="M71.295 264.987c.886-1.054 1.98-1.946 3.004-2.863.2-.179.41-.201.338-.496-.177-.718-.53-1.746-.397-2.478.124-.683.512-1.103 1.063-1.454 3.029-.089 6.124 1.559 8.576 3.185.284-.022.554-.1.831-.169.1.557.22.754.578 1.184.833 1 .652 2.951.545 4.222-.028.325-.12.617-.213.929-.111.377-.127.753-.144 1.144.313.521.653.828 1.275.985 1.686.425 3.175-2.667 5.004-2.071.409.928-.51 1.744-.302 2.622.11.464.274.954-.004 1.375-.888 1.346-2.719 2.693-3.95 3.752.637.667 1.22 1.815 1.852 2.328-.052.085-.809.308-.953.354-1.815.594-3.772.484-5.58 1.023-1.156.343-2.228 1.345-3.247 1.987-1.998 1.255-3.893 2.308-5.775 3.769-2.437-.461-4.362-1.29-6.475-2.561-.464-.28-1.178-.599-1.57-.957-.87-.796-1.082-2.983-1.894-4.061-.844-1.118-2.45-2.145-3.869-2.298l-.152-.011-.352-.458c.587-2.056.651-4.348.78-6.477 1.014.615 2.075 1.348 3.223 1.667l.269.067c.75.192 1.5.25 2.27.166 2.07-.225 4.006-2.911 5.27-4.405Z"/>
  <path fill="#3B8081" d="M78.827 273.225c.702-.11.862.001 1.508.249.514.197.862.308 1.422.257.268-.025.432-.052.703-.018l-.25.332c-.41.26-.917.331-1.394.382-.82.087-1.602-.101-2.231-.61l.242-.592Zm-4.29-2.79c.744.052 1.746.208 2.354.683.358.28.383.366.435.803-.678.416-1.52.538-2.287.722-.745.103-1.63.367-2.302-.033-.198-.577-.406-1.023-.256-1.632.543-.457 1.371-.452 2.056-.543Zm1.198 6.344c1.518-.449 3.782.264 5.309.521-2.106 1.033-3.94 1.963-6.261 2.436l-2.73-.241c-.75-.12-1.363-.222-1.818-.841l.33-.257c1.427.201 2.77.204 4.205.164.283-.622.529-1.25.965-1.782Zm-4.44-11.792c.886-1.054 1.98-1.946 3.004-2.863.2-.179.41-.201.338-.496-.177-.718-.53-1.746-.397-2.478.124-.683.512-1.103 1.063-1.454 3.029-.089 6.124 1.559 8.576 3.185.302.999-.101 1.913-.467 2.854-.503 1.293.39 2.601-.355 4.079-.42.835-1.375 1.533-1.91 2.365-.728-.691-2.598-2.128-2.6-3.136-.002-.425.254-.85.44-1.222l-.23-.345-3.31.339 1.002-3.889c-.77 1.009-2.037 2.98-3.375 3.177-.554.081-1.28.174-1.779-.116Z"/>
  <path fill="#1B383A" d="M27.191 264.545c.655.179 1.159.323 1.844.226l1.38.182c1.186.198 2.285-.201 3.494.024-.5 1.355-1.295 2.868-1.47 4.298-.175 1.426 1.316 7.24 2.1 8.456.475.736 2.17 1.599 2.917 2.161.854.644 1.641 1.4 2.465 2.087-.88 2.969-1.672 6.237-2.979 9.035-.706 1.513-2.052 2.319-2.538 4.021-.754 2.641-.54 5.745-.87 8.481l-.16 3.331-26.64.227-.251-.263-.466-.357c-1.063-.047-1.78.351-2.76.656l-.488-.323c-.246-.506-.346-.61-.27-1.184.503-.678 1.022-1.496 1.752-1.947.522-.324.95-.352 1.528-.182.638.189.998.674 1.283 1.245l.067.142c.913-.571 10.664-26.504 11.905-29.479l1.81-4.788 2.084-5.143c.704.268 2.7-.133 3.402-.494l.861-.412Z"/>
  <path fill="#224B4C" d="M27.191 264.545c.655.179 1.159.323 1.844.226l1.38.182c1.186.198 2.285-.201 3.494.024-.5 1.355-1.295 2.868-1.47 4.298-.175 1.426 1.316 7.24 2.1 8.456.475.736 2.17 1.599 2.917 2.161.854.644 1.641 1.4 2.465 2.087-.88 2.969-1.672 6.237-2.979 9.035-.706 1.513-2.052 2.319-2.538 4.021-.754 2.641-.54 5.745-.87 8.481-1.222-1.497-2.835-3.117-3.733-4.824-.862-1.637-1.019-3.559-1.87-5.174-.706-1.34-2.14-2.395-3.28-3.36-.305-.258-.718-.568-.923-.917-.487-.831-.348-3.533-.438-4.632 1.827 1.511 2.926 3.407 3.83 5.553.29.69.586 1.692 1.093 2.234.306.326.352.226.77.229.477-.64.773-1.806.754-2.597-.06-2.551-2.434-4.879-4.148-6.525l2.365-.48c.66-.206 1.272-.503 1.594-1.111-.725-1.46-5.007-1.416-6.553-2.241-1.195-.638-2.014-1.408-2.446-2.695l.446-.469-.055-.12c-.397-.534-1.3-.792-1.906-1.005l1.81-4.788 2.084-5.143c.704.268 2.7-.133 3.402-.494l.861-.412Z"/>
  <path fill="#0C1819" d="m19.034 275.382 1.81-4.788c1.411 1.029 2.768 3.027 2.996 4.802.106.824.163 1.863-.203 2.622-.505.228-.617.173-1.148.091l-1.494-1.602-.055-.12c-.397-.534-1.3-.792-1.906-1.005Z"/>
  <path fill="#224B4C" d="m59.484 273.969.352.458.152.011c1.42.153 3.025 1.18 3.869 2.298.812 1.078 1.024 3.265 1.895 4.061.391.358 1.105.677 1.569.957 2.113 1.271 4.038 2.1 6.475 2.561 1.882-1.461 3.777-2.514 5.775-3.769 1.019-.642 2.091-1.644 3.247-1.987 1.808-.539 3.765-.429 5.58-1.023.144-.046.9-.269.953-.354 1.763-.563 2.871-.397 4.673-.239l.93-1.941.356-.063c.276 1.13-.988 1.985-.104 2.949.602.685 1.144 1.409 1.968 1.831 1.357 1.065 2.785 2.096 3.792 3.517.539.76 1.014 1.541 1.446 2.365.065.124.448.983.524 1.024.076.041.706-.026.835-.029.029.297.007.487-.066.769-.11.43-.036.794.042 1.223.373.522.898.828 1.422 1.182.64.867 1.287 1.734 2.221 2.303l.604-.012c3.018-.091 4.695.246 7.112 2.165.735.582 1.329 1.081 2.25 1.351l4.603 1.748c3.169 4.338 5.547 8.937 8.318 13.51 2.21 3.646 4.857 7.274 6.5 11.226-.558.12-1.221-.133-1.771-.249l-4.497-1.005-11.167-2.514-39.828-8.801c1.294-1.161 2.383-2.242 3.287-3.736-1.792.618-2.831 1.41-4.141 2.773-.564-2.417-.968-4.876-1.968-7.165-.325-.745-.798-1.64-1.587-1.953l-.317.269c-.049 1.299.409 2.711.723 3.973l.924 4.471c-1.677-2.062-3.411-4.053-5.743-5.392l3.93 5.996-12.47-1.245.419-11.949c.064-1.758.368-3.433.1-5.201-.501-3.298-1.833-6.499-2.777-9.69-.616-2.08-1.508-4.659-.41-6.674Z"/>
  <path fill="#70BDBD" d="m154.841 80.275 1.093-.06c.868.781 1.56 1.764 1.78 2.92l-3.243 1.08c.938.764 2.969 1.377 4.184 1.65 2.349.281 4.676.297 7.038.33.842.012 1.845.188 2.66.054.442 1.038 1.164 1.969 1.776 2.915 2.007 3.103 4.917 6.785 8.269 8.507 2.051.844 4.777 2.293 6.241 3.979 1.246 1.436 2.164 3.582 2.9 5.346.794 1.903 1.68 3.422 3.25 4.777.712.381 2.172 1.367 2.944 1.392.2.005.506-.169.691-.138.64.11 3.278 2.487 3.785 3.013l3.299-2.544 15.305 17.831 33.81 40.34-188.684.69 36.48-43.103.725-.868 10.724-12.76c.956-1.443 2.286-2.794 3.417-4.113l5.169-5.083-.419.03c-.675-.025 1.42 1.538.823 1.234-.995-.507.618-.158.269-1.264.879.263-.461.192.337.673.654.395-.99-1.081-.337-.673l-.893-1.139.624-.154c2.224-1.158 4.359-2.339 6.661-3.349 4.181-1.835 8.32-3.248 12.123-5.872 3.431-2.367 5.611-5.647 8.546-8.494 1.303-1.264 2.819-2.209 4.227-3.34l4.426-3.807Z"/>
  <path fill="#51B0AF" d="m99.144 128.386.437.375c2.281-.225 5.144-.207 7.329.543l-.125.217c-1.841-.229-3.48-.269-5.325-.081-.685.07-1.616.334-2.274.289-.165-.012-.65-.348-.768-.475l.726-.868Zm41.727-28.301c1.353-.434 3.735.849 5.121 1.235.697.194 1.439.239 2.13.445 1.677.501 3.642 2.486 5.059 3.597.439.344 1.246.802 1.58 1.218.785.982.952 3.045 1.565 4.265.682 1.356 1.593 2.552 2.368 3.849.642 1.076 1.078 2.243 1.681 3.332l1.651 2.712c-3.547-3.297-6.708-7.701-9.487-11.659-1.26-1.796-2.414-4.079-4.037-5.547-1.485-1.343-3.411-1.958-5.283-2.531-.643-.197-1.624-.339-2.151-.75l-.197-.166Zm6.767 54.356c3.489 1.169 7.06 2.069 10.703 2.606.964.141 3.486.125 4.183.686-.055.201-.056.263-.195.456-.311.432-.995.95-1.512 1.033-2.457.398-4.962.226-7.437.375-2.702.163-5.305.757-7.918 1.417l-11.388 3.454-.222-.253 4.638-1.611c1.579-.632 2.867-1.598 4.212-2.612 2.247-1.696 3.788-2.899 4.936-5.551Zm-37.77-38.815c.956-1.443 2.286-2.794 3.417-4.113l4.75-5.505-.098-.381c-.675-.025.778.098.181-.206 0 .673-.406-.329-.336.336-.137-.713 1.346-.336.336-.336.655.395-.657-.613-.003-.205l.119.075.624-.154.07.158c.599 1.306 1.798 2.471 2.699 3.594 3.37-.042 7.084-.417 9.734 2.095 1.656 1.569 1.565 4.142 2.433 6.137.57 1.308 1.45 2.533 2.167 3.768.752 1.293 1.452 2.78 2.416 3.925 2.042 2.43 5.462 1.656 7.759 3.761 2.147 1.967 4.302 4.506 6.024 6.849 1.168 1.59 2.177 3.317 3.471 4.805 2.664 3.065 5.999 5.489 8.979 8.234-1.034-.495-1.958-1.145-2.978-1.658-1.988-.997-4.079-1.88-5.914-3.151-1.244-.862-2.328-1.998-3.489-2.971-1.303-1.092-2.745-2.059-4.109-3.073-.802-.596-1.607-1.341-2.521-1.758-.68-.31-1.452-.456-2.169-.662-1.642-.47-2.808-2.502-4.43-3.319-2.974-1.498-6.522-1.696-9.585-3.162-2.548-1.222-4.557-2.985-6.714-4.762-2.315-1.907-4.762-3.836-7.239-5.52-1.766-1.201-3.905-1.59-5.594-2.801Z"/>
  <path fill="#2F6768" d="m198.209 116.04 3.299-2.544 15.305 17.831c-2.758 2.885-5.266 7.039-7.049 10.586-.612 1.217-.892 2.665-1.626 3.796l-.322-.334-.191-.26c-.813-.225-1.353-.966-1.932-1.549-1.257-1.264-2.564-2.428-3.739-3.777l-4.846 12.107c-.081-1.179.211-2.386.393-3.553.534-3.428 1.248-7.141 2.367-10.421l-.128-1.511c-.734-.762-1.303-2.14-2.132-2.645-4.92 2.555-7.789 7.1-9.844 12.089-.56 1.359-.857 2.792-1.532 4.11l1.153-8.042c-.946-.3-1.6-1.309-2.22-2.044l-5.505 8.885c.721-4.329 2.12-8.074 3.811-12.104l-.298-.322c-.302.146-.558.255-.888.321-.338-.651.193-.979-.153-1.748-3.409 3.179-5.36 7.578-8.382 11.038.477-1.51 1.328-2.984 2.084-4.375l5.129-8.417 2.335-3.184 8.941-9.32c.79-.442 1.539-1.183 2.249-1.75l3.721-2.863Z"/>
  <path fill="#70BDBD" d="m186.158 138.59 2.542-2.939-.975 4.034c-.638-.231-1.069-.656-1.567-1.095Z"/>
  <path fill="#51B0AF" d="m197.608 133.766 2.516-.26c-.001.989.049 2.013-.128 2.986l-.128 1.43-.128-1.511c-.734-.762-1.303-2.14-2.132-2.645Zm-11.45 4.824c.498.439.929.864 1.567 1.095l-.34 2.238c-.946-.3-1.6-1.309-2.22-2.044l.993-1.289Z"/>
  <path fill="#3B8081" d="M182.132 134.911c.558-.561 1.08-1.2 1.832-1.488l.4.224c.13 1.031-.397 2.125-.893 3.013l-.298-.322c-.302.146-.558.255-.888.321-.338-.651.193-.979-.153-1.748Z"/>
  <path fill="#70BDBD" d="M202.75 138.133c.753-1.647 2.154-4.437 4.011-5.103.622-.223 1.34-.052 1.901.259.761.42 1.04 1.019 1.221 1.834.211.952.05 1.945-.096 2.894-.36 2.338-1.03 4.545-1.789 6.778l-.181.58-.191-.26c-.813-.225-1.353-.966-1.932-1.549-1.257-1.265-2.564-2.428-3.739-3.777.196-.586.504-1.114.795-1.656Z"/>
  <path fill="#51B0AF" d="M202.75 138.133c1.527 1.979 4.061 3.983 4.999 6.28.095.232.056.144.249.382l-.181.58-.191-.26c-.813-.225-1.353-.966-1.932-1.549-1.257-1.265-2.564-2.428-3.739-3.777.196-.586.504-1.114.795-1.656Zm-44.095-52.269c2.349.282 4.676.298 7.038.331.842.012 1.845.188 2.66.054.442 1.038 1.164 1.969 1.776 2.915 2.007 3.103 4.917 6.785 8.269 8.507 2.051.844 4.777 2.293 6.241 3.979 1.246 1.436 2.164 3.582 2.9 5.346.794 1.903 1.68 3.422 3.25 4.777.712.381 2.172 1.367 2.944 1.392.2.005.506-.169.691-.138.64.11 3.278 2.487 3.785 3.013l-3.721 2.863c-.71.567-1.459 1.308-2.249 1.75l-8.941 9.32-2.335 3.184-3.408-3.328c-2.261-2.598-3.187-6.957-4.808-10.009-1.546-2.909-3.861-5.156-5.492-7.963-1.77-3.047-2.422-6.524-3.748-9.751-.852-2.078-2.149-3.856-3.285-5.772-1.756-2.963-2.32-6.746-2.051-10.15l.484-.32Z"/>
  <path fill="#70BDBD" d="M178.398 97.671c2.051.844 4.777 2.293 6.241 3.979 1.246 1.436 2.164 3.582 2.9 5.346.794 1.903 1.68 3.422 3.25 4.777.712.381 2.172 1.367 2.944 1.392.2.005.506-.169.691-.138.64.11 3.278 2.487 3.785 3.013l-3.721 2.863c-.71.567-1.459 1.308-2.249 1.75l-8.941 9.32c-2.056-3.483-4.308-7.993-4.412-12.083-.05-1.981.298-4.043.041-6.009-.232-1.781-.786-3.534-1.121-5.3-.528-2.789-.346-5.868.07-8.668l.522-.242Z"/>
  <path fill="#51B0AF" d="M190.789 111.773c.712.381 2.172 1.367 2.944 1.392.2.005.506-.169.691-.138.64.11 3.278 2.487 3.785 3.013l-3.721 2.863c-.71.567-1.459 1.308-2.249 1.75-.403-1.068-.508-2.31-.684-3.438l-.766-5.442Z"/>
  <path fill="url(#b)" d="m234.549 178.431 17.1.05-23.847 39.794-32.422 54.162-6.668 10.831c-.775 1.258-1.47 2.799-2.42 3.917l-4.014 6.816-13.857 23.147c-.136-.201-.651-.385-.872-.5-.991-.513-2.014-1.013-2.95-1.624-1.537-1.004-2.433-2.382-3.792-3.511-1.902-1.581-4.449-.614-6.673-.415-1.139-.463-2.423-1.072-3.205-2.056-.495-.622-.778-1.383-1.191-2.057l-.153-.246c-.692-.397-2.492-1.7-3.201-1.548-.206.044-.332.141-.509.249-.796.486-1.797.592-2.672.901-1.019.36-2.035.874-2.999 1.364l-1.266.747-1.946.89c-.28-.691-.034-1.51-.463-2.086-1.729-.708-2.401-2.314-3.205-3.869l-.119-.262-8.899-15.415-12.748-21.545-1.937-3.203-16.6-28.347c.35-.411.885-.603 1.28-.999.615-.616 1.106-1.351 1.782-1.909 1.731-1.425 3.864-2.139 6.056-2.432.985-.132 2.172-.136 3.048-.613l4.929 2.521 1.764-.903.827-.391.215.199c-.615.593-1.396 1.041-2.104 1.517l12.907 5.98c1.782.824 3.678 1.982 5.537 2.557.494.151.913.102 1.406-.012.865-.545 1.216-1.391 1.6-2.302.545-.228 1.729-.525 1.98-1.064.464-.991-.129-3.042-.356-4.053-.021-.097-.246-.932-.224-.979.006-.014.551-.246.588-.262 1.201-.529 2.242-1.014 3.585-1.002-.033-1.143-.29-3.217.432-4.121l.097-.109c-.281-1.267-.854-1.59-1.522-2.566l3.323-6.512 2.089 3.627.274-.546-.163-.419c1.683-2.185 2.638-4.632 3.88-7.058.654.818 1.2 1.933 1.689 2.866.227.433.378.985.764 1.304l.189.141c.434-.83.901-1.647 1.181-2.544.973 1.559 1.831 3.237 2.311 5.019.072.538.132 1.062.292 1.582.978.264 2.94.374 3.856-.124.407-.222.744-.614 1.034-.969l2.58-4.889.366.032c.167.43.264.741.651 1.025 1.139-1.001 2.415-2.065 3.201-3.374l.226.446.164-.112c.866-.727 1.664-1.762 2.44-2.595 3.292-3.532 6.004-7.379 7.972-11.811.402-.905.99-1.967 1.01-2.962l-.474-.417c1.049-.037 2.246-.672 3.227-1.056l11.936-5.309c2.75-1.137 5.651-1.897 8.515-2.68 1.322-.361 2.677-.968 3.986-1.261 2.627-.591 5.659-.885 8.344-.765.719.031 1.736-.017 2.39.273 1.075.474 2.321.767 3.44 1.158 1.529.604 3.134 1.483 4.698 1.913l.283-.102c2.07-.747 3.942-1.885 5.849-2.965l6.354-3.55c.83-.463 2.5-1.021 3.115-1.688.123-.133.155-.329.233-.494-.947-.381-2.86.149-3.524-.425Z"/>
  <path fill="#AED9DA" d="M172.977 248.702c.599.663.924 1.18 1.249 2.013l-.476.51c-.731-.497-.986-.747-1.267-1.568.065-.589.049-.564.494-.955Z"/>
  <path fill="#70BDBD" d="M166.37 223.397c.435.283.602.775.824 1.225l.073.068c.33 1.122.297 2.264.313 3.424l-.295.27c-.279-.052-.441-.015-.634-.241-.64-.751-.331-3.759-.281-4.746Zm-14.997 25.266c-.417-.647-.809-1.195-.728-1.973l.552-.368c.863-.064 1.448-.019 2.288.218-.156.821-.247 1.316-.907 1.901-.445.194-.704.307-1.205.222Z"/>
  <path fill="#51B0AF" d="M153.667 246.05c.226-.984.286-1.982 1.182-2.57.6.048.659.047 1.039.517.422.525.478 1.191.441 1.838l-.014.253-2.648-.038Z"/>
  <path fill="#469797" d="M174.518 280.816c1.242-1.224.967-5.008.98-6.72l.011-1.858.282-.198c.403.712.222 2.046.222 2.886l.089 6.543c-.251-.513-.581-1.061-.486-1.645.054-.33.043-.453-.042-.775-.029.495-.039 1.001-.169 1.482-.105.385-.3.395-.628.584l-.259-.299Z"/>
  <path fill="#3B8081" d="m163.267 265.723.859-.097.149.196-1.267.889c-.922 1.902-.435 5.378-.356 7.501l-.149.458-.18-.605c-.551-2.064-.583-4.242-.41-6.363.039-.482.03-1.211.301-1.627.208-.318.69-.287 1.053-.352Z"/>
  <path fill="#70BDBD" d="m141.904 246.896.124-.567c2.322-.46 5.157-.368 7.491.008.234.562.093 1.038-.011 1.62l-.302.276c-1.953.179-3.636-.356-5.51-.156-.646.069-1.353-.773-1.792-1.181Z"/>
  <path fill="#3B8081" d="M169.073 287.524c.358-.52.289-1.574.338-2.206.116-1.506.18-9.114.734-9.855.099.044.254.03.297.129.048.111-.038.805-.041.968-.025 1.121-.044 2.61.575 3.575.778.132.664-.461 1.344-.742l-.061.238c-.397 1.72.631 3.944.163 5.692-.335 1.246-1.371 1.819-1.783 3.052l-.466.052-1.1-.903Z"/>
  <path fill="#469797" d="M152.385 219.55c.072.538.132 1.062.292 1.582.978.264 2.94.374 3.856-.124.407-.222.744-.614 1.034-.969l.065.232c.518 1.964.546 3.079-.026 5.045-1.446.547-3.757.255-5.311.203-.171-1.929.019-4.03.09-5.969Z"/>
  <path fill="#3B8081" d="m174.739 252.3.171-.089c.403-.215.868-.421 1.001-.9l.032-.488c.072-.931.812-1.585 1.309-2.331l.296.129.198.544.394.125c.34-.426.588-.77.77-1.288.196-.56.524-.873.948-1.272l.513.04c.746.969.186 2.144.872 3.159l-.297.889c.298.277.548.425.914.609.434.218.585.344.82.762-.991 1.149-1.902 1.764-2.477 3.238l-2.557.287c-.046.697-.02 1.47-.304 2.115l-.315-.2-.298-1.612c-.663-.129-1.407-.225-2.043-.446-.361-.127-1.155-.809-1.48-.777-.148.014-.264.136-.395.203l.091.37 2.971 1.665c-.217.694-1.438 1.761-2.09 2.097-.549.283-.826.383-1.126.954l-.438.841-.267-.052-.09-.201c-.562-1.203-1.174-1.415-2.342-1.843l-1.349-1.545 2.5-1.403c-.044-.524-.825-.572-1.297-1.015.009-1.092.177-1.185.857-1.974.024-.131.176-.702.144-.791-.119-.328-.57-.282-.676-.789.903-.219 1.192-.779 1.696-1.499.194-.275.292-.398.626-.516l.462.361c.281.821.536 1.071 1.267 1.568l.476-.51.513 1.585Z"/>
  <path fill="#70BDBD" d="m174.226 250.715.513 1.585c-.27.495-.65.858-1.04 1.261-.659-.014-.677-.081-1.168-.473.293-.86.972-1.028 1.219-1.863l.476-.51Z"/>
  <path fill="#469797" d="m142.534 220.241-.163-.419c1.683-2.185 2.638-4.632 3.88-7.058.654.818 1.2 1.933 1.689 2.866.227.433.378.985.764 1.304l.189.141-.059.171c-.922 2.711-.433 6.396-.382 9.227.01.577.149 1.825-.043 2.342-.245.658-1.51 1.077-1.772 1.964-.133.452-.246 2.643-.413 2.766a11.8 11.8 0 0 0-2.724-.72l-.94-.144-.003-3.902c-.024-1.048-.063-2.096.12-3.133.109-.614.592-1.633.563-2.213-.035-.697-.703-1.955-.98-2.646l.274-.546Z"/>
  <path fill="#70BDBD" d="M142.534 220.241c.473.371.988.615 1.079 1.259.094.664-.006 1.398.034 2.073.087 1.461.51 3.007.041 4.442-.369.318-.69.553-1.131.764-.024-1.048-.063-2.096.12-3.133.109-.614.592-1.633.563-2.213-.035-.697-.703-1.955-.98-2.646l.274-.546Z"/>
  <path fill="#2F6768" d="m172.32 279.393 1.28-1.095c.593.742.304 1.706.918 2.518l.259.299c-.489 1.729-.124 3.459-.672 5.194.799.749 1.621 1.343 2.539 1.936 1.238-1.586 2.204-2.201 4.019-3.029-.175 1.124-.68 2.86-.493 3.971l-3.723 3.662c.383.651.941 1.947 1.522 2.369l.234-.135c1.094-.623 2.422-1.362 3.693-1.13l.382.048-13.857 23.147c-.136-.201-.651-.385-.872-.5-.991-.513-2.014-1.013-2.95-1.624-1.537-1.004-2.433-2.382-3.792-3.511-1.902-1.581-4.449-.614-6.673-.415-1.139-.463-2.423-1.072-3.205-2.056-.495-.622-.778-1.383-1.191-2.057l-.153-.246c1.118.06 2.324-.633 3.315-1.08-1.108-.153-2.405-.243-3.412-.753l-.266-.14c-1.431-.736-2.622-2.208-3.746-3.348l3.155.972c.731.252 1.13.569 1.952.488l.121-.305c-.365-.089-.642-.163-.97-.354l.004-.333c.228-.105.426-.182.676-.218.218-.033.481-.05.684-.143.576-.265.725-.586.888-1.155-.542-.939-1.563-.807-2.188-1.678l.116-.459c.909-.186 2.609.582 3.581.822l-3.186-2.627c-.109-.706-.027-.694.356-1.256l.499-.39.266.095c.417.158.723.45 1.05.743l.691.059c.57-.519.935-.715.993-1.527.04-.555-.151-1.083-.37-1.58.17-.937.245-2.028.857-2.79l.494-.252.378.279c.141 1.585-.264 3.76.261 5.196.503.344.782.508 1.434.375.325-.067.661-.242.962-.382l.11-.064c.118-.053.267-.112.364-.2.447-.402.408-.915.486-1.47.09.243.074.349.298.494l.148-.541c.327 1.491.43 2.598-.002 4.093l.79.79c.257.017.447.047.691-.062.885-.392.256-2.644.593-3.387.335.155.542.44.79.707l.296-.146c.585-1.794.284-4.364.28-6.245l.082-8.931.278-.099c.14 1.856.38 11.085.893 12.08l.535.011.119-.119c.426-.584.293-2.058.283-2.779l.065-.54 1.456-1.113c.335-1.356.398-2.441.285-3.829.502 1.322.937 2.619 1.89 3.693l.163.183 1.1.903.466-.052c.412-1.233 1.448-1.806 1.783-3.052.468-1.748-.56-3.972-.163-5.692l.061-.238Z"/>
  <path fill="#3B8081" d="m165.442 309.156.451-.035c.729.373 2.184.64 2.713 1.121l-.138.253c-.703.362-1.344.53-2.108.689-1.131.113-2.347.019-3.486.011.822-.769 1.604-1.453 2.568-2.039Zm-2.135-6.713.399-.003c.856.699 2.075.839 3.068 1.35l.21.108c1.056-.292 1.937-.949 2.965-1.325l.21.265-.758.741c-.985.806-3.26 1.92-4.584 1.526-.626-.187-1.047-.953-1.793-1.004-.323-.023-.409-.06-.675-.239.141-.692.488-.927.958-1.419Zm-5.017-7.509c.118-.053.267-.112.364-.2.447-.402.408-.915.486-1.47.09.243.074.349.298.494l.148-.541c.327 1.491.43 2.598-.002 4.093l.79.79c.257.017.447.047.691-.062.885-.392.256-2.644.593-3.387.335.155.542.44.79.707l.296-.146c.585-1.794.284-4.364.28-6.245l.082-8.931.278-.099c.14 1.856.38 11.085.893 12.08l.535.011.119-.119c.426-.584.293-2.058.283-2.779l.101.109c.345.36.604.511 1.053.706 1.554.675 3.241 2.35 4.962 1.796l.184.239c-.729.622-1.759.924-2.716.851-1.152-.088-2.126-.514-2.994-1.281l-.453.036c-.538.826-1.288.491-1.135 1.481.424.616.808 1.038 1.468 1.408 1.039.584 3.702 1.054 4.03 2.145-.832.761-2.483.351-3.105 1.185.395.772 1.123.976 1.873 1.382-1.265.657-3.829.377-5.145-.02-.952-.288-1.746-.823-2.764-.856-.38.519-.145 2.066-.926 2.204a2.128 2.128 0 0 1-1.675-.408c-.248-.189-.445-.47-.623-.723l.006-.383c.415-.355.819-.718 1.278-1.017.278-.18.448-.338.674-.574.101-1.08.084-1.454-.624-2.331l-.503-.081.11-.064Zm46.22-70.649c4.843-3.877 10.378-4.475 16.288-5.349 2.252-.333 4.731-.877 7.004-.661l-32.422 54.162-6.668 10.831c-.775 1.258-1.47 2.799-2.42 3.917l-4.014 6.816-.382-.048c-1.271-.232-2.599.507-3.693 1.13l-.234.135c-.581-.422-1.139-1.718-1.522-2.369l3.723-3.662c-.187-1.111.318-2.847.493-3.971-1.815.828-2.781 1.443-4.019 3.029-.918-.593-1.74-1.187-2.539-1.936.548-1.735.183-3.465.672-5.194.328-.189.523-.199.628-.584.13-.481.14-.987.169-1.482.085.322.096.445.042.775-.095.584.235 1.132.486 1.645.293.546.352.901.952 1.112.468-.323.465-.617.625-1.159.504-1.709.123-4.503.999-5.882 1.948-.995.53-3.016 1.731-3.967l.378.27.274 2.369.335.257c.539-.41.435-1.007.987-1.507l.691.08.145-.311c-.266-1.139-.467-2.393-1.1-3.394-1.451-2.295-3.822-3.334-6.445-3.596-1.346-.134-2.727-.015-4.048-.331v-.175l7.797-.424c4.422-.623 8.062-3.746 11.619-6.211 5.994-4.155 12.363-8.417 16.773-14.331 2.776-3.721 4.341-8.557 3.605-13.213-.41-2.601-1.815-5.036-4.46-5.857-.678-.21-1.689-.285-2.242-.733l-.208-.181Z"/>
  <path fill="#2F6768" d="M186.292 287.185a7.312 7.312 0 0 1-1.676-2.011l-.091-.16c-.791-.287-1.07.046-1.846.016l-.082-.453c.525-1.01 1.564-3.073 2.716-3.389 1.188-.326 3.245-.528 4.056-1.481.347-.99.494-2.313.124-3.322-.245-.665-.382-.733-.99-1.012-.44.251-.949.582-1.481.496-.602-.098-.765-.334-1.126-.768.361-1.434 3.201-2.937 4.346-3.981-.53-.689-1.241-1.271-1.874-1.866.237-.628.762-1.191 1.089-1.789.531-.976.824-1.995 1.112-3.062l2.89 4.559c.202.348.181.314.077.708l-.198.036-.296.063c-.638.127-.969.273-1.48.686l.045.511c.602.656 1.103.967 1.987 1.112l1.786.359-6.668 10.831c-.775 1.258-1.47 2.799-2.42 3.917Z"/>
  <path fill="#70BDBD" d="M164.523 246.304c2.64-.006 6.413.038 8.34 2.233l.114.165c-.445.391-.429.366-.494.955l-.462-.361c-.334.118-.432.241-.626.516-.504.72-.793 1.28-1.696 1.499.106.507.557.461.676.789.032.089-.12.66-.144.791-.68.789-.848.882-.857 1.974.472.443 1.253.491 1.297 1.015l-2.5 1.403 1.349 1.545c-.716.748-1.426 1.418-2.283 2.004-2.585 1.769-5.423 3.108-7.928 4.991-.254.19-1.075.673-1.186.893-.25.491.006 2.897.007 3.577l.201 18.638c.04 1.695.585 4.455-.041 6.003l-.11.064c-.301.14-.637.315-.962.382-.652.133-.931-.031-1.434-.375-.525-1.436-.12-3.611-.261-5.196l-.378-.279-.494.252c-.612.762-.687 1.853-.857 2.79.219.497.41 1.025.37 1.58-.058.812-.423 1.008-.993 1.527l-.691-.059c-.327-.293-.633-.585-1.05-.743l-.266-.095-.499.39c-.383.562-.465.55-.356 1.256l3.186 2.627c-.972-.24-2.672-1.008-3.581-.822l-.116.459c.625.871 1.646.739 2.188 1.678-.163.569-.312.89-.888 1.155-.203.093-.466.11-.684.143-.25.036-.448.113-.676.218l-.004.333c.328.191.605.265.97.354l-.121.305c-.822.081-1.221-.236-1.952-.488l-3.155-.972c1.124 1.14 2.315 2.612 3.746 3.348l.266.14c1.007.51 2.304.6 3.412.753-.991.447-2.197 1.14-3.315 1.08-.692-.397-2.492-1.7-3.201-1.548-.206.044-.332.141-.509.249-.796.486-1.797.592-2.672.901-1.019.36-2.035.874-2.999 1.364l-1.266.747-1.946.89c-.28-.691-.034-1.51-.463-2.086-1.729-.708-2.401-2.314-3.205-3.869l-.119-.262.032-.256c.395-1.163.218-1.933-.041-3.114.378-1.986.265-4.245.237-6.267-.044-3.408-.158-6.987.179-10.377l-.016-6.923c-.117-2.308-.401-4.607-.419-6.919-.007-.935-.077-1.992.177-2.897.317-1.128 1.311-2.181 2.348-2.703 2.818-1.421 6.454-2.073 9.533-2.836 5.356-1.329 10.953-2.82 15.874-5.357 1.588-.818 4.622-2.509 5.058-4.445.105-.464-.207-.744-.446-1.107l-1.046-1.281c-.159-.802-.359-1.527-.152-2.339Z"/>
  <path fill="#AED9DA" d="M150.665 295.172a1.105 1.105 0 0 1-.251-.427c-.433-1.306-.212-3.235-.207-4.613l.152-8.714c.049-1.241-.034-2.849.562-3.961.441 5.64-.516 11.53.216 17.129l.027.196-.499.39Zm-11.727 13.28-.097-.197c-.553-.955-.298-2.917-.286-4.025.036-3.372-.194-7.022.268-10.345l.269.019c.391 4.466-.037 9.246 1.065 13.623l.047.178-1.266.747Zm-5.342-32.264.158-1.919c.544-.397.556-.331 1.19-.254.168.267.261.291.214.614-.314 2.179-.092 4.487-.16 6.691-.084 2.745-.514 5.554-.691 8.311-.055.861.05 2.58-.38 3.243-.373-.36-.237-1.636-.247-2.187-.04-2.415.263-5.211-.068-7.576l-.016-6.923Zm-.272 27.199c.798-.568.82-.742 1.328-1.476.212-.308.203-1.09.245-1.479.114-1.049.243-1.949.598-2.952.661-1.861.38-4.672.356-6.655l.085-7.931c-.023-2.871-.435-6.019.091-8.84.529 1.273.562 2.716.636 4.078.198 3.633-.152 7.217-.071 10.838.132 5.955.769 12.066.321 18.008l-.384.278c-1.729-.708-2.401-2.314-3.205-3.869Z"/>
  <path fill="url(#c)" d="m105.187 228.662 4.929 2.521 1.764-.903.827-.391.215.199c-.615.593-1.396 1.041-2.104 1.517l12.907 5.98c1.782.824 3.678 1.982 5.537 2.557.494.151.913.102 1.406-.012.865-.545 1.216-1.391 1.6-2.302.545-.228 1.729-.525 1.98-1.064.464-.991-.129-3.042-.356-4.053-.021-.097-.246-.932-.224-.979.006-.014.551-.246.588-.262 1.201-.529 2.242-1.014 3.585-1.002-.067 2.471-.73 4.785-1.08 7.221-.353 2.453-.197 5.164.172 7.61.852.659 2.084.659 3.102.941l.404-.357c.802.274.921.362 1.465 1.013.439.408 1.146 1.25 1.792 1.181 1.874-.2 3.557.335 5.51.156l-.277.611.231.382c.06-.393.099-.437.359-.74.623.121 1.222.157 1.854.177.501.085.76-.028 1.205-.222.66-.585.751-1.08.907-1.901l.182-.49 2.648.038.289.539.023-.001c1.174-.701 4.569-.327 6.019-.164.23.276.294.513.39.854.095-.332-.06-.777-.004-1.138.087-.562.347-.74.798-1.014.474.382.493.579.693 1.14-.207.812-.007 1.537.152 2.339l1.046 1.281c.239.363.551.643.446 1.107-.436 1.936-3.47 3.627-5.058 4.445-4.921 2.537-10.518 4.028-15.874 5.357-3.079.763-6.715 1.415-9.533 2.836-1.037.522-2.031 1.575-2.348 2.703-.254.905-.184 1.962-.177 2.897.018 2.312.302 4.611.419 6.919l.016 6.923c-.337 3.39-.223 6.969-.179 10.377.028 2.022.141 4.281-.237 6.267.259 1.181.436 1.951.041 3.114l-.032.256-8.899-15.415-12.748-21.545-1.937-3.203-16.6-28.347c.35-.411.885-.603 1.28-.999.615-.616 1.106-1.351 1.782-1.909 1.731-1.425 3.864-2.139 6.056-2.432.985-.132 2.172-.136 3.048-.613Z"/>
  <path fill="#469797" d="m130.669 292.288.075-12.842.264-.101c.306.969.495 13.985.221 14.631l-.104-.041c-.042-.629-.007-1.161-.456-1.647Z"/>
  <path fill="#3B8081" d="m149.904 252.696 1.363.544c.617.301 1.177.783 1.707 1.216-.68.134-2.107.191-2.501.804-.104.162-.156.413-.207.592l-.352.118-.153-.175c-.61-.687-1.962-1.154-2.315-1.819l.228-.561c.809-.026 1.517-.374 2.23-.719Zm-.744-3.47c.06-.393.099-.437.359-.74.623.121 1.222.157 1.854.177l.553.407c-.416.706-1.074.588-1.307 1.352.244.537.657.718 1.151 1.008l.197.473c-.613.524-1.717.485-2.524.529-.464-.015-.89.012-1.305-.225l-.087-.403c.224-.466.541-.636.971-.91l.179-.112c.297-.615.109-.926-.041-1.556Zm13.876-1.91c.095-.332-.06-.777-.004-1.138.087-.562.347-.74.798-1.014.474.382.493.579.693 1.14-.207.812-.007 1.537.152 2.339l1.046 1.281c-.634.389-1.248 1.016-1.99 1.121-.787-.256-.906-.389-1.459-1.017a3.788 3.788 0 0 1-.033-1.392c.368-.335.575-.877.797-1.32Zm-53.415 15.646c.217-.079.6-.285.816-.299.92-.06 4.56 1.74 5.612 2.125.921.337 1.875.524 2.827.746-2.294.115-4.669.302-6.959.112-.329.221-.258.177-.359.519l-1.937-3.203Zm44.046-16.912 2.648.038.289.539.023-.001.529 1.596.061.731c-.793.629-2.968.62-3.947.452-.252-.042-.403-.144-.616-.276l-.076-.688c.66-.585.751-1.08.907-1.901l.182-.49Z"/>
  <path fill="#70BDBD" d="M156.627 246.626c1.174-.701 4.569-.327 6.019-.164.23.276.294.513.39.854-.222.443-.429.985-.797 1.32l-.44.052c-1.164.111-3.743.266-4.643-.466l-.529-1.596Zm-21.027 1.402c-1.083-.049-2.152-.005-3.227-.2-1.315-.239-2.853-.903-3.592-2.08-.304-.485-.485-1.349-.302-1.907.349-1.059 1.909-1.713 2.813-2.19l.645 2.345c.579 1.535 3.647.726 4.996 1.303.852.659 2.084.659 3.102.941-.516.71-1.055 1.29-1.05 2.208-.217.104-.247.185-.485.1-.714-.255-1.088-.602-1.614-1.125-.682.057-.767.19-1.286.605Z"/>
  <path fill="#3B8081" d="m124.306 287.71.085-.129c.315-.511.321-.784.286-1.367-.077-1.261.167-11.87.45-12.22.376.632.202 1.925.211 2.704.021 2.054.024 4.124.236 6.169.109 1.061.403 2.156.733 3.169.616-1.673.644-3.214.908-4.943.39.521.301 1.276.339 1.923l.17 4.571c.019.848-.094 1.853.28 2.628.247-.08.461-.182.691-.304.395.475.4 1.245.491 1.842.177 1.169.322 2.251.832 3.33l.552 1.15.099-3.945c.449.486.414 1.018.456 1.647l.104.041c.354 2.044.848 3.997 1.967 5.779.259 1.181.436 1.951.041 3.114l-.032.256-8.899-15.415Zm15.729-41.47.404-.357c.802.274.921.362 1.465 1.013.439.408 1.146 1.25 1.792 1.181 1.874-.2 3.557.335 5.51.156l-.277.611.231.382c.15.63.338.941.041 1.556l-.179.112c-.43.274-.747.444-.971.91l.087.403c.415.237.841.21 1.305.225l.462.263c-.712.345-1.421.694-2.23.72-.253-.281-.434-.364-.788-.489-.356.277-.572.453-.8.853.275.661.293.658.92 1.031.587.351.888.471 1.055 1.141-.119.359-.411 1.096-.799 1.246-.466.18-1.557.121-1.888.537-.178.224-.113.665-.395 1.012-.305-.187-.433-.412-.616-.708-.209-.341-1.016-.356-1.358-.577-.406-.263-.853-1.04-1.14-1.432-1.055 1.625-1.839 2.557-3.625 3.355-.44.196-1.045.354-1.42.647-.4.313-.399 1.127-.481 1.621l-.341.193-.296-.34-.029-.18c-.065-.379-.129-.884-.413-1.171-.319-.322-.856-.417-1.236-.665-.929-.605-1.867-1.548-2.798-2.222l4.635-2.692-3.366-.934c1.052-.453 2.606-.634 3.234-1.639-.334-.692-1.146-1.005-1.793-1.366l1.174-1.062c.541-.576.487-.797.489-1.546.519-.415.604-.548 1.286-.605.526.523.9.87 1.614 1.125.238.085.268.004.485-.1-.005-.918.534-1.498 1.05-2.208Z"/>
  <path fill="#51B0AF" d="M142.184 250.719c.639-.007 1.168.094 1.669.49l-.102.497c-.266.05-.573.122-.844.104-.493-.033-.718-.239-1.018-.595l.295-.496Zm-3.425 4.54c.547-.017 1.204.092 1.638.438.288.229.246.277.285.641l-.44.248c-.664-.132-1.359-.432-1.962-.735l-.035-.394.514-.198Z"/>
  <path fill="#469797" d="M141.905 246.896c.439.408 1.146 1.25 1.792 1.181 1.874-.2 3.557.335 5.51.156l-.278.611.231.382c.15.63.338.941.041 1.556l-.179.112c-.43.274-.747.444-.971.91l.087.403c.415.237.841.21 1.305.225l.462.263c-.712.345-1.421.694-2.23.72-.253-.281-.434-.364-.788-.489-.55-.641-1.018-1.181-1.315-1.99.067-.493.15-.898-.018-1.383l-.475-.129-.938.317c-.548.146-1.46.054-1.935-.249-.466-.297-.429-.554-.529-1.044.234-.502.283-.833.242-1.388l-.014-.164Z"/>
  <path fill="#51B0AF" d="m234.549 178.431 17.1.05-23.847 39.794c-2.273-.216-4.751.328-7.003.661-5.91.875-11.445 1.472-16.288 5.349l-.177.11c-2.695 1.672-5.251 3.778-7.801 5.677-.954.71-1.948 1.628-2.996 2.177l-.204-.308.177-.767c-.122.004-.258-.043-.368.011-.578.286-1.369 1.252-1.916 1.708l-4.517 3.447c-2.55 1.782-5.262 3.445-8.206 4.476l-.205-3.125c-.724-.052-1.478-.009-2.077-.462-.656-1.551-.351-3.662.266-5.188-.834-.713-1.417-1.21-2.517-1.454-.109-.023-1.214-.23-1.223-.243-.179-.249-.281-2.481-.314-2.894-.131-1.631.086-2.445 1.044-3.787l-3.293-6.551-2.367 4.734c-.239.485-.749 1.286-.794 1.826-.02.252.124.688.171.95-.222-.45-.389-.942-.824-1.225-.304-.669-.001-2.203.175-2.922.576-2.352-1.428-4.446-2.248-6.575l.294-.621.164-.112c.866-.727 1.664-1.762 2.44-2.595 3.292-3.532 6.004-7.379 7.972-11.811.402-.905.99-1.967 1.01-2.962l-.474-.417c1.049-.037 2.246-.672 3.227-1.056l11.936-5.309c2.75-1.137 5.651-1.897 8.515-2.68 1.322-.361 2.677-.968 3.986-1.261 2.627-.591 5.659-.885 8.344-.765.719.031 1.736-.017 2.39.273 1.075.474 2.321.767 3.44 1.158 1.529.604 3.134 1.483 4.698 1.913l.283-.102c2.07-.747 3.942-1.885 5.849-2.965l6.354-3.55c.83-.463 2.5-1.021 3.115-1.688.123-.133.155-.329.233-.494-.947-.381-2.86.149-3.524-.425Z"/>
  <path fill="#469797" d="M195.376 206.891c.269-.064.53-.056.808-.064l.034.262c-3.079 2.463-6.117 4.914-8.716 7.896l-.386.255-.054-.171 2.535-3.275c1.868-2.657 2.458-4.029 5.779-4.903Zm22.166-21.148c1.529.604 3.134 1.483 4.698 1.912.197.421.364.819.396 1.288.096 1.417-.322 2.964-.695 4.317-1.841 6.663-6.595 12.956-11.034 18.17l-.196-.196c.506-1.233 1.891-2.57 2.706-3.659 2.683-3.581 5.13-8.383 5.467-12.892.163-2.182-.077-4.097-.603-6.213-.199-.794-.946-1.993-.739-2.727Z"/>
  <path fill="#70BDBD" d="M242.066.09H317v72.782l-.051.214c-.458 1.989-.462 4.094-.711 6.118-.321 2.595-.898 5.246-1.536 7.783-2.952 11.715-9.736 23.003-18.291 31.471-2.651 2.624-5.241 4.936-8.385 6.962-.318.784.92 3.066 1.287 3.937.416.986 1.432 4.115 2.289 4.599 2.04 1.149 3.915 2.696 5.939 3.787 3.037 1.639 6.227 2.607 9.209 4.393.574.345 1.434.662 1.738 1.283-.181.253-.189.347-.489.462-1.07.411-2.021.987-3.039 1.503l-8.095 4.379-13.413 7.493c-2.492 1.372-4.774 3.037-7.524 3.881l-3.089 1.898c-2.528 1.803-11.41 7.435-14.18 6.947-3.331-.586-5.787-5.037-7.58-7.569l-2.267-2.777-24.137-29.023-16.943-20.397-19.954-24.072c-1.194-.43-3.111-.199-4.4-.199l-10.431.112c-1.534.036-3.058.205-4.594.192-.815.133-1.818-.042-2.66-.054-2.362-.033-4.689-.049-7.038-.33-1.215-.273-3.246-.886-4.184-1.65l3.243-1.08c1.217-.4 5.132-1.256 5.765-2.2l-.182-.592 1.936-.124.541-.018c.408-.04.949-.07 1.317-.27 1.63-.884 3.301-2.846 4.674-4.106 1.918-1.76 3.928-3.203 5.579-5.252l.064-.118c.525-.938.451-2 .52-3.044l.38-4.773.913-5.904c1.407-7.31 4.014-14.817 7.719-21.283 8.975-15.665 23.021-27.587 40.521-32.571 2.875-.819 5.931-1.521 8.892-1.96 1.822-.27 3.709-.262 5.488-.765l.225-.065Zm12.275 0 .156.063c1.576.591 3.539.528 5.212.812a65.402 65.402 0 0 1 8.708 2.112c18.397 5.83 33.689 19.295 41.942 36.693 2.982 6.285 4.836 13.08 5.864 19.947.344 2.298.225 4.715.777 6.968V.09h-62.659Z"/>
  <path fill="#AED9DA" d="m177.344 70.573.894.73c1.77-.347 3.472-1.196 5.171-1.796 2.836-1 6.048-1.69 9.047-1.897 4.41-.305 8.607.12 12.85 1.37 1.984.585 3.928 1.378 5.976 1.71 2.594.42 5.166-.18 7.736.134 1.212.147 2.413.374 3.597.668.366.091 1.196.425 1.509.395.09-.01.547-.384.638-.448l3.05-2.172c6.506-4.33 15.535-6.524 23.267-4.884 2.607.554 4.95 1.903 6.909 3.703 1.195 1.098 2.277 2.297 3.332 3.529.163.19 1.129 1.445 1.242 1.468.34.066 1.722-.445 2.147-.535 3.132-.666 6.547-.918 9.656-.05l.257.069c3.397.935 5.704 3.399 8.464 5.373 1.635 1.17 3.262 1.952 5.17 2.552 1.776.557 3.603.799 5.453.946 1.974.157 5.405-.056 7.054 1.12.443.316.871.693 1.16 1.158.159.255.196.48.232.772-.27.682-.379.813-.946 1.283-2.353.418-5.059.183-7.451.183l-13.799.003-49.641.062-27.896.127c-4.779.04-9.893.514-14.644-.002-1.194-.43-3.111-.199-4.4-.199l-10.431.112c-1.534.036-3.058.205-4.594.192-.815.133-1.818-.042-2.66-.054-2.362-.033-4.689-.049-7.038-.33-1.215-.273-3.246-.886-4.184-1.65l3.242-1.08c1.217-.4 5.132-1.256 5.765-2.2l-.181-.593 1.935-.124.542-.017c.408-.04.949-.07 1.317-.27 1.63-.884 3.301-2.846 4.674-4.106 1.918-1.76 3.928-3.203 5.579-5.252Z"/>
  <path fill="#2F6768" d="M237.943 124.442c5.011-2.758 10.172-6.928 11.786-12.642.251-.886.387-1.835.126-2.732l-.361-.189c-1.778.979-3.205 3.302-3.871 5.179-.243.686-.468 1.728-.9 2.299-.305.405-.602.421-1.051.54-.495-.19-.75-.258-.938-.821-.221-.665.105-1.535-.03-2.258-.208-1.114-1.152-1.992-1.361-2.992-.056-.264.031-.748.042-1.027.018-.417.164-.987-.141-1.316a1.048 1.048 0 0 0-.139-.127c-.326-.249-.903-.35-1.184-.605-.257-.231-.559-1.166-.624-1.497l-.065-.937.173-.099c.375.408.469.64.558 1.185l.379.21c.326-.294.35-.502.444-.913l.236-.063.676.583c.554-.161.782-.302 1.111-.805 1.237-1.892 1.538-4.359 2.9-6.268l.193-.054c.39-.115.746-.225 1.07-.48.208-.164.774-.807 1.042-.836.248-.027 1.829.538 2.071.674 2.036 1.14 2.898 6.081 3.327 8.228.077.387-.098.718-.078 1.105.054.99.559 1.508.2 2.522-.28.791-.065 1.525-.22 2.315-.083.421-.377.783-.521 1.185-.256.714-.345 1.57-.452 2.32-.061.423-.007.907-.333 1.19-.869.756-.936 1.78-1.335 2.807-.344.885-.935 1.611-.995 2.597-.052.873.138 1.914.719 2.599.399.471 1.347.858 1.95.879 1.2.042 2.481-.871 3.608-1.235 1.763-.568 3.589-.893 5.284-1.673a5.423 5.423 0 0 0 1.653-1.186c1.403-1.487 1.53-4.589 1.41-6.5-.186-2.96-.833-5.887-1.723-8.709-.492-1.565-1.004-3.02-2.104-4.27-.554-.191-.68-.04-1.21.175-.569.65-.439.976-.691 1.712-.351-.087-.359-.083-.558-.399-.933-1.482-.561-4.088-.453-5.768.542.706 1.016 1.47 1.899 1.761.705.044 1.068-.077 1.678-.426.338.066.386.162.601.397.549.6 1.494.937 2.235 1.238 1.574.638 3.22 1.171 4.719 1.972 2.057 1.098 3.921 2.678 5.582 4.31 3.368 3.309 6.68 7.457 9.469 11.271.935 1.279 1.754 2.624 2.55 3.995.49.845.959 1.951 1.73 2.557-.318.784.92 3.066 1.287 3.937.416.986 1.432 4.115 2.289 4.599 2.04 1.149 3.915 2.696 5.939 3.787 3.037 1.639 6.227 2.607 9.209 4.393.574.345 1.434.662 1.738 1.283-.181.253-.189.347-.489.462-1.07.411-2.021.987-3.039 1.503l-8.095 4.379-13.413 7.493c-2.492 1.372-4.774 3.037-7.524 3.881l-3.089 1.898c-2.528 1.803-11.41 7.435-14.18 6.947-3.331-.586-5.787-5.037-7.58-7.569l-2.267-2.777-24.137-29.023-16.943-20.397c.681-.598 1.436-.984 2.243-1.379 2.218-1.082 4.607-1.972 6.935-2.794l5.961-2.06c.399-.141 1.524-.412 1.8-.679.468-.452-.13-1.306.742-1.737.527.365.63.564 1.283.49.72-.638 2.046-2.656 2.763-2.852.576.213.926.776 1.18 1.311.336.71.633 2.232.399 2.985l-.295.024c-.374-.435-.507-.777-1.086-.865-.915 1.463-.922 3.457-1.112 5.124-.493 4.329-.911 8.4-.378 12.761 2.59.363 5.219 1.305 7.577 2.42.758.358 1.601.675 2.119 1.36l.08.117Z"/>
  <path fill="#70BDBD" d="m274.407 143.321.649-.139.25.336c-.072.645-.026 1.139-.447 1.657l-1.924.016-.543.024-.209-.315a11.382 11.382 0 0 1 2.224-1.579Z"/>
  <path fill="#AED9DA" d="m266.862 130.883.247.032.142.265-.414 1.579c-.288.833-.462 1.431-1.255 1.834l-.159-.133a1.392 1.392 0 0 1-.412-.974c-.021-.961 1.216-1.982 1.851-2.603Z"/>
  <path fill="#70BDBD" d="M247.773 102.849c.155-.009.085-.012.26.015.464.07.662.155.904.577.371.651-.213 2.161-.403 2.872l-.894-.7c-.402-.358-.724-.605-.72-1.171.004-.634.405-1.188.853-1.593Z"/>
  <path fill="#51B0AF" d="M228.169 120.545c2.589.364 5.218 1.305 7.577 2.42.758.358 1.6.675 2.119 1.36l.08.117-2.041.705c-1.553.358-5.37-.484-6.651-1.452-.789-.597-.969-2.24-1.084-3.15Z"/>
  <path fill="#70BDBD" d="m270.995 129.304.477-.001c.715.476 1.161 1.175 1.653 1.863-.338 5.263-2.739 10.69-6.483 14.43-1.86-.214-3.866-.435-5.422-1.578-1.573-1.156-2.247-3.348-3.327-4.922-.54-.788-1.276-1.466-1.958-2.132-1.813-1.495-2.503-2.945-3.292-5.089 1.791.931 4.002 2.341 5.158 4.042l.095.148c2.52-.297 4.852-.257 7.315.364l-.139 3.658c1.101-1.187 1.616-2.631 2.259-4.071.518-1.161 1.192-2.297 1.773-3.43.544-1.059 1.04-2.227 1.788-3.159l.103-.123Zm-46.32 1.309c.394-.445.459-.433 1.055-.465.673-.037 1.357.167 1.858.624 1.962 1.787 2.622 4.311 3.891 6.544.024-1.344-.293-3.167.547-4.267.613-.225 1.031-.42 1.668-.088.855.445 1.647 1.731 2.207 2.497a29.82 29.82 0 0 0 2.304 2.763c.194-.774.366-1.454.789-2.145 1.135-.518 3.288.569 4.414.99 1.921.719 2.92 2.48 3.709 4.308 1.167 2.703.548 6.009 1.528 8.802.396 1.127 1.102 2.054 1.885 2.936.9.187 1.632.138 2.224.87-.225 1.59-2.258 4.469-3.576 5.445-.186.137-.188.128-.366.209l-24.137-29.023Z"/>
  <path fill="#51B0AF" d="M275.929 161.138c-.233-.868 1.307-2.757 1.854-3.606 1.019-1.581 2.427-3.743 2.941-5.566.363-1.287-1.13-3.888-1.751-4.963 1.824-2.945 3.201-6.398 4.159-9.721 1.479 3.628 2.273 7.295 2.595 11.198l.188 5.156c.507-.891.695-2.185.937-3.19 1.541-6.39 1.156-12.362.347-18.799 2.882 3.406 4.181 7.406 6.165 11.309-.095-2.049-1.003-4.534-1.507-6.552-.152-.613-.518-1.66-.336-2.269l.082-.179c2.04 1.149 3.915 2.696 5.939 3.788 3.037 1.638 6.227 2.606 9.209 4.392.574.345 1.434.663 1.738 1.283-.181.254-.189.347-.489.462-1.07.412-2.021.987-3.039 1.504l-8.095 4.378-13.413 7.493c-2.492 1.372-4.774 3.037-7.524 3.882Z"/>
  <path fill="#70BDBD" d="m251.08 162.413 1.527-.337-.017-.296c-.052-.928-.197-1.854-.055-2.781.352-2.312 1.423-4.576 1.968-6.873l-2.638-.523c-.074-2.631.772-4.308 1.919-6.599.012 1.043-.223 3.079.232 3.974.548.123.439-.515 1.037-.718.24.278.482.518.759.759.54-.175.846-.181 1.407-.086l.172.032.321-.254-.049-1.078.418-.157c1.061.321 2.144.681 3.234.883.744.137 1.795.037 2.453.362l-2.119 1.735c1.116-.222 2.009-.907 3.045-1.348 2.752-1.176 5.709-1.381 8.659-1.278.592.106.897.035 1.27.525.004 1.671-.815 3.284-1.504 4.778-.362.786-1.021 1.861-.873 2.737l.185-.151c1.422-1.197 2.411-2.846 3.615-4.249.479-.557.987-1.238 1.676-1.531.424.511.405 1.21.369 1.871-.074 1.38-1.033 2.697-1.766 3.812-1.444 2.194-3.321 4.712-3.485 7.413-2.528 1.803-11.41 7.435-14.18 6.947-3.331-.586-5.787-5.037-7.58-7.569Z"/>
  <path fill="#51B0AF" d="M273.353 147.83c.592.106.897.035 1.27.525.004 1.671-.815 3.284-1.504 4.778-.362.786-1.021 1.861-.873 2.737-1.303 1.108-3.178 1.516-4.742 2.16-1.202.494-2.279 1.155-3.538 1.515.167-.19.315-.34.523-.487 1.184-.833 2.178-1.948 3.235-2.934 1.766-1.646 3.639-3.158 4.826-5.296.5-.899 1.084-1.987.803-2.998Z"/>
  <defs>
    <linearGradient id="a" x1="167.254" x2="48.296" y1="388.645" y2="-8.579" gradientUnits="userSpaceOnUse">
      <stop stop-color="#41A9A7"/>
      <stop offset="1" stop-color="#77C0C0"/>
    </linearGradient>
    <linearGradient id="b" x1="134.095" x2="254.574" y1="88.272" y2="268.453" gradientUnits="userSpaceOnUse">
      <stop stop-color="#3B8181"/>
      <stop offset="1" stop-color="#4BA4A4"/>
    </linearGradient>
    <linearGradient id="c" x1="165.127" x2="106.707" y1="6.659" y2="366.996" gradientUnits="userSpaceOnUse">
      <stop stop-color="#418F8E"/>
      <stop offset="1" stop-color="#4EA8A8"/>
    </linearGradient>
  </defs>
</svg>
