<svg xmlns="http://www.w3.org/2000/svg" width="139" height="87" fill="none" viewBox="0 0 139 87">
  <path fill="#000" d="M0 3.289V0h139v87H0V3.289ZM53.049 0c2.209.73 3.362 3.339 4.33 5.265.792 1.572 1.686 3.153 2.267 4.814.56 1.597.792 3.227.978 4.9.84.258 1.716.433 2.532.762 3.185 1.285 5.68 3.977 7.276 6.977.778 1.463 1.042 2.957 1.576 4.496.97-.487 1.883-1.06 2.875-1.51 1.371-.62 2.8-1.095 4.23-1.56.863-.281 1.73-.6 2.612-.82 1.839-.454 3.79-.771 5.681-.872 3.057-.163 6.272.142 9.306.514 3.76.462 7.586 1.148 11.189 2.342 2.902.961 5.688 2.219 8.376 3.671 3.199 1.729 6.303 3.725 8.745 6.456 1.122 1.255 2.035 2.676 2.788 4.179a24.509 24.509 0 0 1 1.676 4.356l.627 2.757c.043.208.082.694.183.861.008.013.027.012.041.017.667.283 1.287.513 1.908.893 3.38 2.064 5.419 6.242 6.362 9.965.197.776.214 1.575.393 2.344V0H53.049ZM0 3.507V87h98.366c-.476-.144-1.169-.085-1.68-.112l-2.606-.206c-2.07-.225-4.065-.676-6.071-1.22-2.97-.805-6.107-1.806-8.41-3.949-1.365-1.27-2.704-3.02-2.763-4.968-.043-1.44.77-2.38 1.703-3.365-.899-.403-2.264-.262-3.24-.354-1.25-.119-2.504-.296-3.76-.345l-6.45.038c-.301 0-.6-.05-.902-.052l-8.947-.012-4.671.276-9.411-.042c-3.768-.01-7.808.298-11.533-.392-1.98-.366-4.208-1.168-5.381-2.921-.483-.721-.654-1.768-.479-2.615.35-1.696 1.725-2.654 3.195-3.344.37-.172.809-.3 1.147-.522-2.368-1.42-4.372-3.201-5.92-5.504a14.387 14.387 0 0 1-.75-1.225c-.07-.13-.269-.65-.364-.72-.016-.012-.308.02-.36.024-1.03.086-2.022.196-3.06.147-2.286-.108-4.65-.988-6.63-2.1-2.624-1.472-5.831-4.047-6.666-7.081-.204-.739-.334-1.779.079-2.473.487-.82 1.546-1.315 2.316-1.815.483-.313.921-.69 1.411-.996 2.536-1.583 5.335-2.668 8.238-3.346l-3.655-7.656L4.55 13.17 1.79 7.53C1.144 6.208.424 4.923 0 3.507Zm0-.218.024-.022.042-.036c.079-.073.155-.152.252-.201.32-.162.885-.124 1.223-.046 1.388.321 2.772.823 4.138 1.238l8.108 2.475 25.558 7.692.65-1.462 1.22-2.27C41.949 9.31 42.693 8 43.639 6.79c1.437-1.839 3.179-3.402 5.078-4.748 1.129-.8 2.327-1.587 3.64-2.042H0v3.289ZM102.261 87H139V62.595l-.014.064c-.11.501-.102 1.02-.167 1.527-.097.743-.269 1.507-.451 2.234-1.133 4.528-4.036 8.406-7.922 10.96-2.101 1.381-4.222 2.7-6.479 3.814-4.733 2.336-9.957 3.928-15.127 4.936l-4.393.669c-.683.077-1.534.02-2.186.201Z"/>
  <path fill="#F7CECB" d="M10.103 47.358c.642-.087 1.211-.312 1.83-.488 1.61-.46 3.41-.753 5.049-.258 1.066.322 2.025.914 3.107 1.197.268.711.53 1.405.536 2.177.006.746-.338 1.367-.573 2.056-.1.293-.224.733-.132 1.038l.415.036.01.037c-1.439.026-3.013.168-4.397-.288-.01-.045-.004-.096-.027-.137-.033-.058-.316-.215-.392-.268l-1.167-.87c-.754-.587-4.103-3.438-4.259-4.232Z"/>
  <path fill="#fff" d="M15.948 52.865c-.834-.147-1.649-.474-2.417-.822-3.073-1.394-5.954-3.486-7.18-6.736.716-.66 1.572-1.163 2.398-1.671 2.771-1.703 5.492-2.915 8.653-3.665l1.303 2.632c.077.145.432.68.433.815.005.384-.172.936-.24 1.329-.187.009-.453-.121-.637-.179-.379-.12-.768-.21-1.156-.291-2.146-.45-4.743-.13-6.742.755-.443.196-.938.379-1.118.873-.093.256-.082.684.047.925.162.303.419.418.731.506l.08.022c.156.794 3.505 3.645 4.259 4.232l1.167.87c.076.053.36.21.392.268.023.04.018.092.027.137Z"/>
  <path fill="#F7CECB" d="M54.359 4.526a29.543 29.543 0 0 1 3.396 7.164c.258.817.527 1.626.536 2.491l-.042.033c-.293.25-.378.656-.563.983-.687 1.215-1.87 1.726-3.22 1.648-.99-.058-2.281-.5-3.067-1.1a35.54 35.54 0 0 1 .996-6.836c.359-1.454 1.095-2.83 1.098-4.339.14.079.306.195.464.225.091.017.32-.205.402-.269Z"/>
  <path fill="#fff" d="M53.493 4.57c-.26-.16-.589-.409-.893-.446a.853.853 0 0 0-.68.186c-.58.487-.809 1.523-1.034 2.224-.833 2.586-1.433 5.24-1.694 7.947l-.036.018c-.42.168-1.225.137-1.698.196-.862.106-1.722.231-2.567.436l-1.677.456c-.105.03-.41.158-.505.148-.126-.013-.455-.31-.577-.385-.222-.136-.478-.233-.718-.332l.79-1.63c1.94-3.712 4.527-7.02 7.947-9.475.777-.558 1.703-1.182 2.617-1.468l1.59 2.081c-.08.064-.31.286-.4.269-.159-.03-.325-.147-.465-.225Zm77.05 45.397c.448.331.942.657 1.355 1.03 1.55 1.408 2.835 3.355 3.681 5.27 1.555 3.524 1.451 7.57.07 11.126-.601 1.55-1.398 3.026-2.444 4.322-2.956 3.66-7.678 6.168-11.934 8.034-11.22 4.92-24.67 6.743-36.313 2.196-1.52-.624-3.016-1.347-4.2-2.515-.717-.707-1.625-1.937-1.622-2.981 0-.368.213-.7.468-.951 1.494-1.476 3.499-.33 5.229-.276.271.008.484-.045.737-.138.143-.052.365-.186.508-.153.193.045.434.228.618.324.496.259 1.019.521 1.548.704 2.856.99 6.052 1.66 9.083 1.69 1.968.019 3.909-.296 5.84-.643 4.555-.819 8.953-2.12 13.164-4.055 2.661-1.223 5.222-2.651 7.319-4.727 3.188-3.156 5.582-7.667 6.416-12.08.379-2 .462-4.144.477-6.177ZM5.515 11.117 2.572 5.35c2.074.372 3.986 1.07 5.987 1.698l6.743 2.034 25.077 7.565c-1.931 4.308-4.078 8.769-6.853 12.6-1.366 1.885-2.973 3.617-4.601 5.276-2.653 2.705-5.485 5.225-8.384 7.662l-.058.01-11.855-24.57c-1.255-2.046-2.238-4.278-3.113-6.51Z"/>
  <path fill="#45C7B0" d="M32.762 18.44c.096-.019.19-.014.288-.015.357.273.082.632.324.983.235.342.733.432.97.797-.127.452-.568.394-.832.659-.256.257-.192.762-.396 1.056-.229.018-.279-.003-.489-.102l-.422-.357c-.274-.234-.7-.207-1.047-.23a.613.613 0 0 1-.23-.347c.146-.68.032-1.232.031-1.902 0-.15.131-.266.228-.367.589.146 1.018.028 1.575-.176ZM5.515 11.116c.67.087 1.234.195 1.81-.249.497-.382.865-.904 1.378-1.28l.487 2.97 1.636 1.055c.246.157.597.326.79.54l-2.485.764-.504 2.71c-1.254-2.047-2.237-4.278-3.112-6.51Zm14.261.26c.124.13.14.424.178.607.136.654.21 1.427.425 2.051.06.175 1.707.947 1.98 1.095-.159.144-.417.223-.615.31l-1.373.617c-.41.736-.378 1.546-.412 2.366l-1.173-1.448-.36-.402c-.665-.31-1.811-.147-2.549-.128.092-.372.639-.836.826-1.215.418-.848-.202-2.036-.484-2.861.713.167 1.403.377 2.134.438.64-.34.997-.865 1.423-1.43Zm4.144 8.711.812 4.743 3.871 2.34c-1.216.626-2.55.93-3.735 1.633-.735 1.174-.707 3.167-.864 4.514l-2.456-3.262-.449-.586-4.61.154c.706-.893 1.238-1.88 1.76-2.887.086-.167.333-.556.352-.73.016-.155-.218-.543-.287-.684l-1.077-2.257c-.115-.258-.318-.638-.303-.916l.03-.023a.67.67 0 0 1 .43-.12c1.15.007 2.365.765 3.507.975 1.133-.65 2.146-1.929 3.018-2.895Z"/>
  <path fill="#fff" d="M51.399 15.744c.786.6 2.077 1.043 3.067 1.1 1.35.08 2.533-.432 3.22-1.647.185-.327.27-.733.563-.983l.042-.033.32 2.826c1.45.295 2.913.614 4.266 1.235 1.892.867 3.558 2.482 4.696 4.205 3.13 4.742 3.09 11.326 1.966 16.703-1.624 7.77-7.034 14.15-13.561 18.398-4.71 3.065-10.107 5-15.731 5.344-2.025.124-4.009.07-6-.355-3.963-.846-7.942-3.063-10.174-6.53l-1.42-2.527c-.76-.135-1.536-.31-2.309-.327l-.009-.037-.415-.036c-.092-.305.031-.745.131-1.038.236-.689.58-1.31.574-2.056-.006-.772-.268-1.466-.537-2.176.304-.188.68-.386.898-.673.363-.48.228-1.72.265-2.31.008-.127-.008-.485.04-.585.015-.033.24-.16.28-.186l.983-.672c1.354-.935 2.701-1.906 3.927-3.007 1.787-1.605 3.537-3.305 5.107-5.125 2.03-2.352 3.781-4.91 5.5-7.492 1.976-2.97 4.135-6.07 5.17-9.52 1.4-.46 2.745-.757 4.204-.95l2.676-.317c.473-.06 1.018-.097 1.46-.28.434-.18.626-.534.8-.949Z"/>
  <path fill="#000" d="M55.91 25.81c.22-.274.369-.488.74-.535a.932.932 0 0 1 .72.204c.279.24.43.578.437.942l-.022.597c-.643-.178-1.309-.825-1.875-1.207Zm-4.97 7.84-.082.011c-.481.05-1.256.114-1.641-.225a.794.794 0 0 1-.292-.606c-.013-.3.011-.544.232-.768.438-.443 1.185-.347 1.751-.34l-.936.152c-.124.181-.089.473-.046.688.072.363.281.647.52.917.108.121.343.141.495.17Z"/>
  <path fill="#000" d="M55.91 25.81c.566.383 1.232 1.03 1.875 1.208l-.313 1.188c-.174.595-.379 1.161-.753 1.663.026-.457.143-.9.26-1.34-.053-.239-.203-.571-.396-.722-.245.228-.277.573-.522.801l-.057-.05c.112-.36.197-.78.085-1.15-.073-.244-.158-.285-.367-.406l.112-.933.076-.258Z"/>
  <path fill="#000" d="M55.91 25.81c.566.383 1.232 1.03 1.875 1.208l-.313 1.188c-.266-.178-.391-.506-.603-.743a8.98 8.98 0 0 0-.985-.936c-.064-.15-.051-.297-.05-.458l.076-.258ZM41.54 55.317c.177-.022.279.043.438.109.085.102.147.186.149.324.009.848-.763 2.004-1.138 2.774-.46.943-.886 1.942-1.428 2.838a5.168 5.168 0 0 1-.745.95l-.135.047a.48.48 0 0 1-.274-.126c-.12-.11-.212-.172-.209-.347.006-.258.146-.57.258-.798.31-.639.756-1.201 1.09-1.826l1.159-2.418c.248-.545.412-1.085.835-1.527Zm26.172-18.499c.126-.016.27-.043.397-.031.218.021.331.127.46.293.039.208.042.247-.03.443-.385.352-.963.43-1.454.543l-1.869.458-3.378.914c-.296.04-.424.094-.698-.035-.104-.16-.162-.261-.18-.453.173-.219.42-.337.666-.454.876-.41 1.895-.606 2.828-.844l3.258-.834Zm-.466-5.203c.266-.01.297.038.487.204.058.173.082.214.016.394-.112.31-.549.621-.801.82-.637.499-1.353.889-2.015 1.353l-2.348 1.688c-.415.3-.857.692-1.331.888-.14.006-.26.03-.366-.089-.15-.166-.135-.298-.131-.504.199-.266.412-.496.67-.706.891-.725 1.917-1.34 2.856-2.005.937-.665 1.882-1.637 2.963-2.043ZM38.193 51.827c.232 0 .321-.029.509.12.08.186.125.297.074.498-.165.21-.367.317-.6.436-1.058.54-2.186.896-3.255 1.408-1.257.603-2.431 1.372-3.734 1.88l-.14.035c-.246-.073-.29-.124-.453-.31-.029-.13-.08-.225-.008-.35.51-.88 6.537-3.37 7.607-3.717Zm1.356 1.86.257-.028c.054.041.114.084.155.14.116.157.144.243.117.431-.415.578-.98 1.056-1.488 1.55l-2.333 2.296-2.136 2.273a4.359 4.359 0 0 1-.86.673c-.053.01-.072.016-.132.007-.208-.032-.284-.16-.402-.313-.011-.13-.031-.216.018-.34.1-.256.251-.465.43-.671.75-.864 1.64-1.604 2.456-2.403l2.13-2.123c.517-.516 1.107-1.203 1.788-1.492Zm25.666-26.079c.09-.003.182.03.269.052.155.161.248.257.277.491-.082.292-.32.552-.51.786-.636.778-1.387 1.45-2.042 2.21l-2.161 2.623c-.54.67-1.075 1.503-1.791 1.988-.046.012-.063.02-.114.017-.202-.006-.305-.158-.435-.289a.546.546 0 0 1 0-.31c.17-.484.754-1.027 1.09-1.43l2.49-2.978c.678-.811 1.313-1.688 2.04-2.454.26-.275.55-.53.887-.706Zm-9.493-.606c.21.12.294.162.367.405.111.37.027.792-.085 1.152l.057.05c.245-.23.277-.574.522-.802.193.15.343.483.396.722-.117.44-.234.883-.26 1.34-1.058 1.319-2.209 2.681-3.814 3.34-.624.256-1.234.36-1.899.433l-.066.008c-.152-.03-.386-.05-.493-.17-.24-.271-.449-.555-.521-.918-.043-.215-.078-.507.046-.688l.936-.151c.545-.111 1.108-.275 1.603-.535 1.707-.896 2.647-2.397 3.211-4.186ZM38.715 41.259c.226-.034.4-.06.607.068.258.158.442.409.495.71.148.842-1.04 2.985-1.517 3.709-1.075 1.634-2.6 2.944-4.424 3.668-.883.35-1.817.55-2.744.742l-.332-.08c-.296-.087-.534-.229-.68-.51a1.1 1.1 0 0 1-.063-.87c.34-.963 2.323-.94 3.143-1.226.663-.23 1.288-.608 1.836-1.042 1.1-.87 1.94-2.02 2.494-3.304.208-.48.392-1.08.689-1.51.127-.186.297-.267.495-.355Zm15.821-3.056c.131-.026.272-.018.405-.02.22.182.373.354.503.61.47.924.586 2.253.25 3.242-.354 1.047-1.152 1.89-2.137 2.374-1.432.703-2.49.552-3.943.058.019 1.594-.248 2.89-1.33 4.135-.812.936-2.11 1.65-3.362 1.721-.362.02-.584-.047-.853-.29-.103-.215-.102-.36-.085-.59.421-.636 1.242-.394 1.877-.606.427-.143.805-.436 1.159-.708l.634-.67c.89-1.095.87-2.344.726-3.674-.342.061-.697.116-1.045.086-.292-.024-.546-.23-.72-.454-.322-.411-.313-1.052-.248-1.548.085-.645.474-1.394.998-1.785.297-.223.643-.416 1.027-.345.367.067.728.354.927.663.452.7.22 1.563.048 2.314.65.582 1.322 1.065 2.232 1.036.83-.025 1.852-.528 2.403-1.138.654-.727.789-1.649.542-2.572-.125-.466-.324-.95-.35-1.432.081-.2.165-.285.342-.407Z"/>
  <path fill="#fff" d="M88.203 24.953c1.317-.109 2.669.004 3.985.082 1.397.083 2.855.12 4.24.292.587.073 1.181.246 1.771.34 3.577.57 7.118 1.268 10.535 2.503 3.134 1.132 6.12 2.621 8.944 4.387 1.951 1.22 3.868 2.573 5.44 4.265 1.203 1.294 2.154 2.75 2.902 4.35.893 1.907 1.413 3.946 1.748 6.02.603 3.729.587 7.532-.719 11.114-1.38 3.783-3.697 7.478-6.997 9.858-1.38.996-2.941 1.775-4.481 2.489-4.272 1.98-8.715 3.267-13.35 4.051-1.286.218-2.602.453-3.909.492-2.94.088-6.112-.371-8.876-1.39-3.404-1.255-5.85-3.502-7.36-6.8-1.445-3.158-1.576-6.586-.358-9.838 1.014-2.707 3.05-5.576 5.75-6.799 3.212-1.455 8.075-1.118 10.882 1.115.381.304.683.625.995 1 .258.31.528.724.925.863.293.104.672.068.947-.076.394-.207.479-.65.6-1.044-.134-.667-.435-1.177-.913-1.663-2.452-2.493-5.926-3.481-9.332-3.503-1.024-.01-2.14.141-3.132.388-3.222.802-5.776 3.142-7.455 5.94-2.282 3.803-3.081 8.309-1.756 12.593.224.725.483 1.445.794 2.138.184.41.475.77.585 1.21l-.193.114c-.253.388-.095 1.069-.035 1.508-.83-.043-1.668-.196-2.497-.28l-4.878-.418-4.074-.13-4.656-.122-4.774.092-8.132.183-10.86.022-4.923.002c-1.373 0-2.748.02-4.114-.144-1.566-.188-3.654-.551-4.868-1.615-.274-.24-.608-.596-.631-.978-.027-.445.1-.79.403-1.118 1.082-1.168 2.741-1.405 4.2-1.714.372-.078.77-.246 1.15-.256.334-.008.777.17 1.108.25l1.815.368c2.007.332 4.063.374 6.091.265 8.917-.48 17.874-5.251 23.782-11.849 3.876-4.33 6.707-9.557 7.589-15.343.425-2.789.416-5.612.264-8.422 1.62-1.202 3.398-2.027 5.29-2.714a35.25 35.25 0 0 1 7.083-1.777c1.147-.16 2.3-.222 3.455-.301Z"/>
</svg>
