<svg xmlns="http://www.w3.org/2000/svg" width="708" height="21" fill="none" viewBox="0 0 708 21">
  <path fill="#67ABAB" d="m698.842 6.025-1.621 1.565-4.697-5.148V2.06l.406.139 14.663-.14v.696l-9.967 10.505-1.588.8-.169-.8h-.304v-.418l.642-.452-.169-.452-1.622.452v-.696l.771-.587c-.139.086-1.219.264-1.751.344l-5.878-5.878V2.06h.743l7.737 8.208 5.811-5.008v-.383l-3.851-.104.844 1.252Z"/>
  <path fill="#67ABAB" d="m381.702 2-4.109 3.882h310.543V2H381.702Zm-27.303 7L353 8l6-7 4-1-8.601 9Zm-8.914-4L344 6.502l4.662 4.32 2.6-2.465-1.651-1.67-1.155 1.039L345.485 5Zm17.291 0 1.486 1.502-4.663 4.32L357 8.358l1.65-1.67 1.156 1.039L362.776 5Z"/>
  <path fill="#67ABAB" d="m353.766 10.043-1.461-1.37-2.922 2.74L354 16l4.5-4.5L348.774.792 345 0l10.714 11.038L354 13l-1.695-1.587 1.461-1.37Z"/>
  <path fill="#67ABAB" d="M343.285 8 342 9.16 354 21l12-12-1-1-11 10.5L343.285 8Zm-2.439-2.248L336 2v2.502l4.846 3.752L345 4.814l-1.385-1.25-2.769 2.188Zm26.308 0L372 2v2.502l-4.846 3.752L363 4.814l1.385-1.25 2.769 2.188ZM19.617 2v3.882H330L325.822 2H19.617Z"/>
  <path fill="#67ABAB" d="m8.746 6.025 1.62 1.565 4.695-5.148V2.06l-.405.139L0 2.059v.696L9.962 13.26l1.587.8.169-.8h.304v-.418l-.642-.452.169-.452 1.62.452v-.696l-.77-.587c.14.086 1.219.264 1.75.344l5.876-5.878V2.06h-.743l-7.733 8.208L5.74 5.26v-.383l3.85-.104-.845 1.252Z"/>
</svg>
